<svg width="30" height="30" viewBox="0 0 30 30" fill="none" xmlns="http://www.w3.org/2000/svg">
<g clip-path="url(#clip0_10_45)">
<path d="M28.2938 23.9813C28.532 23.7957 28.7219 23.5554 28.8474 23.2807C28.9728 23.006 29.03 22.7051 29.0142 22.4036C28.9984 22.102 28.9099 21.8088 28.7564 21.5487C28.6029 21.2887 28.3889 21.0696 28.1325 20.91L28.125 9.99375L26.25 11.25V20.9062C25.9966 21.0657 25.785 21.2835 25.6329 21.5415C25.4808 21.7994 25.3926 22.09 25.3758 22.3889C25.3589 22.6879 25.4138 22.9865 25.5358 23.26C25.6579 23.5334 25.8436 23.7736 26.0775 23.9606L25.3687 24.9019C24.7384 25.7038 24.3892 26.6907 24.375 27.7106V30.0019H25.9031C26.2702 30.0018 26.6268 29.8794 26.9165 29.6539C27.2062 29.4284 27.4124 29.1127 27.5025 28.7569L28.1231 26.2519V30.0019H29.9981V27.7331C29.9838 26.708 29.6319 25.7162 28.9969 24.9113L28.2938 23.9813ZM15 0L0 7.5L15 16.875L30 7.5L15 0Z" fill="#E4A951"/>
<path d="M15 18.75L5.625 12.5063V15.7125C5.625 17.4188 11.1375 22.5 15 22.5C18.8625 22.5 24.375 17.4188 24.375 15.7125V12.5063L15 18.75Z" fill="#E4A951"/>
</g>
<defs>
<clipPath id="clip0_10_45">
<rect width="30" height="30" fill="white"/>
</clipPath>
</defs>
</svg>
