<svg width="28" height="28" viewBox="0 0 28 28" fill="none" xmlns="http://www.w3.org/2000/svg">
<path d="M25.25 0.875H2.75C2.25287 0.875496 1.77625 1.0732 1.42472 1.42472C1.0732 1.77625 0.875496 2.25287 0.875 2.75V25.25C0.875496 25.7471 1.0732 26.2238 1.42472 26.5753C1.77625 26.9268 2.25287 27.1245 2.75 27.125H25.25C25.7471 27.1243 26.2235 26.9265 26.575 26.575C26.9265 26.2235 27.1243 25.7471 27.125 25.25V2.75C27.1245 2.25287 26.9268 1.77625 26.5753 1.42472C26.2238 1.0732 25.7471 0.875496 25.25 0.875ZM25.25 9.3125H12.125V2.75H25.25V9.3125ZM10.25 2.75V9.3125H2.75V2.75H10.25ZM2.75 25.25V11.1875H25.25L25.2519 25.25H2.75Z" fill="#E4A951"/>
</svg>
