<svg width="30" height="30" viewBox="0 0 30 30" fill="none" xmlns="http://www.w3.org/2000/svg">
<path d="M9 0L8 1.07143V4.34357C8.66464 4.26486 9.33536 4.26486 10 4.34357V2.14286H28V12.8571H24.586L22 15.6279V12.8571H17.946C18.0195 13.5693 18.0195 14.2879 17.946 15H20V18.2143L21.708 18.9729L25.414 15H29L30 13.9286V1.07143L29 0H9Z" fill="#E4A951"/>
<path fill-rule="evenodd" clip-rule="evenodd" d="M12.834 20.205C14.0952 19.3204 15.0562 18.0233 15.574 16.5065C16.0918 14.9897 16.1388 13.3344 15.7081 11.7867C15.2773 10.239 14.3917 8.88163 13.1831 7.91649C11.9745 6.95135 10.5074 6.43001 9 6.43001C7.49262 6.43001 6.0255 6.95135 4.81688 7.91649C3.60825 8.88163 2.72269 10.239 2.29192 11.7867C1.86115 13.3344 1.90818 14.9897 2.42601 16.5065C2.94385 18.0233 3.90482 19.3204 5.166 20.205C3.62143 20.9845 2.31561 22.2186 1.40091 23.7632C0.486204 25.3078 0.000337094 27.0993 0 28.9286L0 30H2V28.9286C2.06139 26.9833 2.82577 25.1397 4.13182 23.7869C5.43787 22.4341 7.1834 21.6779 9 21.6779C10.8166 21.6779 12.5621 22.4341 13.8682 23.7869C15.1742 25.1397 15.9386 26.9833 16 28.9286V30H18V28.9286C17.9997 27.0993 17.5138 25.3078 16.5991 23.7632C15.6844 22.2186 14.3786 20.9845 12.834 20.205ZM9 19.2857C7.67392 19.2857 6.40215 18.7213 5.46447 17.7166C4.52678 16.712 4 15.3494 4 13.9286C4 12.5078 4.52678 11.1452 5.46447 10.1405C6.40215 9.13584 7.67392 8.57143 9 8.57143C10.3261 8.57143 11.5979 9.13584 12.5355 10.1405C13.4732 11.1452 14 12.5078 14 13.9286C14 15.3494 13.4732 16.712 12.5355 17.7166C11.5979 18.7213 10.3261 19.2857 9 19.2857Z" fill="#E4A951"/>
</svg>
