<svg width="32" height="32" viewBox="0 0 32 32" fill="none" xmlns="http://www.w3.org/2000/svg">
<path d="M17.8465 23.5499L10.9438 16.2379C7.61 19.715 4.38486 23.3604 1 26.7267L1.00081 28.9843C1.00081 29.5189 1.17165 30.0316 1.47573 30.4096C1.77982 30.7876 2.19225 31 2.6223 31H29.3769C29.8069 31 30.2194 30.7876 30.5235 30.4096C30.8275 30.0316 30.9984 29.5189 30.9984 28.9843V9.88229C30.9984 9.88229 22.0583 19.1345 17.8465 23.5489V23.5499Z" stroke="#E4A951" stroke-width="0.416667" stroke-linecap="round" stroke-linejoin="round"/>
<path d="M30.9984 1L17.8457 14.6666L10.943 7.35557L1.00085 17.8434V21.9625L10.943 11.4747L17.8457 18.7847L31 5.11812V1H30.9984Z" stroke="#E4A951" stroke-width="0.416667" stroke-linecap="round" stroke-linejoin="round"/>
</svg>
