<svg width="40" height="40" viewBox="0 0 40 40" fill="none" xmlns="http://www.w3.org/2000/svg">
<path d="M31.22 26.0787C31.9783 26.0536 32.7119 25.8034 33.3275 25.36V27.53C33.3275 29.6112 32.0875 31.465 30.2025 32.235C30.6084 31.3642 30.8802 30.4371 31.0088 29.485L31.22 26.0787Z" fill="url(#paint0_radial_10_168)"/>
<path d="M8.56126 26.0787C7.80257 26.0539 7.06847 25.8036 6.45251 25.36V27.53C6.45251 29.6112 7.69251 31.465 9.57751 32.235C9.17205 31.3642 8.90064 30.437 8.77251 29.485L8.56126 26.0787Z" fill="url(#paint1_radial_10_168)"/>
<g filter="url(#filter0_ii_10_168)">
<path d="M8.64628 29.61C8.93462 31.8069 10.0125 33.8238 11.6787 35.2843C13.3448 36.7449 15.4856 37.5493 17.7013 37.5475H22.0988C24.3145 37.5493 26.4552 36.7449 28.1214 35.2843C29.7876 33.8238 30.8654 31.8069 31.1538 29.61C31.4288 25.22 31.705 20.8475 31.91 16.46C31.885 14.6725 30.475 13.1975 28.695 13.1225H25.4325C24.3403 13.1207 23.272 12.8021 22.3572 12.2052C21.4424 11.6084 20.7204 10.759 20.2788 9.75997C20.1644 9.47268 19.9665 9.22626 19.7108 9.05247C19.455 8.87869 19.153 8.78551 18.8438 8.78497H15.8775C11.5763 8.78497 8.09003 12.31 8.09003 16.66C8.09003 20.9975 8.36128 25.2625 8.64628 29.61Z" fill="url(#paint2_radial_10_168)"/>
</g>
<path d="M8.64628 29.61C8.93462 31.8069 10.0125 33.8238 11.6787 35.2843C13.3448 36.7449 15.4856 37.5493 17.7013 37.5475H22.0988C24.3145 37.5493 26.4552 36.7449 28.1214 35.2843C29.7876 33.8238 30.8654 31.8069 31.1538 29.61C31.4288 25.22 31.705 20.8475 31.91 16.46C31.885 14.6725 30.475 13.1975 28.695 13.1225H25.4325C24.3403 13.1207 23.272 12.8021 22.3572 12.2052C21.4424 11.6084 20.7204 10.759 20.2788 9.75997C20.1644 9.47268 19.9665 9.22626 19.7108 9.05247C19.455 8.87869 19.153 8.78551 18.8438 8.78497H15.8775C11.5763 8.78497 8.09003 12.31 8.09003 16.66C8.09003 20.9975 8.36128 25.2625 8.64628 29.61Z" fill="url(#paint3_linear_10_168)"/>
<path d="M8.64628 29.61C8.93462 31.8069 10.0125 33.8238 11.6787 35.2843C13.3448 36.7449 15.4856 37.5493 17.7013 37.5475H22.0988C24.3145 37.5493 26.4552 36.7449 28.1214 35.2843C29.7876 33.8238 30.8654 31.8069 31.1538 29.61C31.4288 25.22 31.705 20.8475 31.91 16.46C31.885 14.6725 30.475 13.1975 28.695 13.1225H25.4325C24.3403 13.1207 23.272 12.8021 22.3572 12.2052C21.4424 11.6084 20.7204 10.759 20.2788 9.75997C20.1644 9.47268 19.9665 9.22626 19.7108 9.05247C19.455 8.87869 19.153 8.78551 18.8438 8.78497H15.8775C11.5763 8.78497 8.09003 12.31 8.09003 16.66C8.09003 20.9975 8.36128 25.2625 8.64628 29.61Z" fill="url(#paint4_radial_10_168)"/>
<path d="M8.64628 29.61C8.93462 31.8069 10.0125 33.8238 11.6787 35.2843C13.3448 36.7449 15.4856 37.5493 17.7013 37.5475H22.0988C24.3145 37.5493 26.4552 36.7449 28.1214 35.2843C29.7876 33.8238 30.8654 31.8069 31.1538 29.61C31.4288 25.22 31.705 20.8475 31.91 16.46C31.885 14.6725 30.475 13.1975 28.695 13.1225H25.4325C24.3403 13.1207 23.272 12.8021 22.3572 12.2052C21.4424 11.6084 20.7204 10.759 20.2788 9.75997C20.1644 9.47268 19.9665 9.22626 19.7108 9.05247C19.455 8.87869 19.153 8.78551 18.8438 8.78497H15.8775C11.5763 8.78497 8.09003 12.31 8.09003 16.66C8.09003 20.9975 8.36128 25.2625 8.64628 29.61Z" fill="url(#paint5_radial_10_168)"/>
<path d="M8.64628 29.61C8.93462 31.8069 10.0125 33.8238 11.6787 35.2843C13.3448 36.7449 15.4856 37.5493 17.7013 37.5475H22.0988C24.3145 37.5493 26.4552 36.7449 28.1214 35.2843C29.7876 33.8238 30.8654 31.8069 31.1538 29.61C31.4288 25.22 31.705 20.8475 31.91 16.46C31.885 14.6725 30.475 13.1975 28.695 13.1225H25.4325C24.3403 13.1207 23.272 12.8021 22.3572 12.2052C21.4424 11.6084 20.7204 10.759 20.2788 9.75997C20.1644 9.47268 19.9665 9.22626 19.7108 9.05247C19.455 8.87869 19.153 8.78551 18.8438 8.78497H15.8775C11.5763 8.78497 8.09003 12.31 8.09003 16.66C8.09003 20.9975 8.36128 25.2625 8.64628 29.61Z" fill="url(#paint6_radial_10_168)"/>
<path d="M8.64628 29.61C8.93462 31.8069 10.0125 33.8238 11.6787 35.2843C13.3448 36.7449 15.4856 37.5493 17.7013 37.5475H22.0988C24.3145 37.5493 26.4552 36.7449 28.1214 35.2843C29.7876 33.8238 30.8654 31.8069 31.1538 29.61C31.4288 25.22 31.705 20.8475 31.91 16.46C31.885 14.6725 30.475 13.1975 28.695 13.1225H25.4325C24.3403 13.1207 23.272 12.8021 22.3572 12.2052C21.4424 11.6084 20.7204 10.759 20.2788 9.75997C20.1644 9.47268 19.9665 9.22626 19.7108 9.05247C19.455 8.87869 19.153 8.78551 18.8438 8.78497H15.8775C11.5763 8.78497 8.09003 12.31 8.09003 16.66C8.09003 20.9975 8.36128 25.2625 8.64628 29.61Z" fill="url(#paint7_radial_10_168)"/>
<path d="M8.64628 29.61C8.93462 31.8069 10.0125 33.8238 11.6787 35.2843C13.3448 36.7449 15.4856 37.5493 17.7013 37.5475H22.0988C24.3145 37.5493 26.4552 36.7449 28.1214 35.2843C29.7876 33.8238 30.8654 31.8069 31.1538 29.61C31.4288 25.22 31.705 20.8475 31.91 16.46C31.885 14.6725 30.475 13.1975 28.695 13.1225H25.4325C24.3403 13.1207 23.272 12.8021 22.3572 12.2052C21.4424 11.6084 20.7204 10.759 20.2788 9.75997C20.1644 9.47268 19.9665 9.22626 19.7108 9.05247C19.455 8.87869 19.153 8.78551 18.8438 8.78497H15.8775C11.5763 8.78497 8.09003 12.31 8.09003 16.66C8.09003 20.9975 8.36128 25.2625 8.64628 29.61Z" fill="url(#paint8_radial_10_168)"/>
<path d="M8.64628 29.61C8.93462 31.8069 10.0125 33.8238 11.6787 35.2843C13.3448 36.7449 15.4856 37.5493 17.7013 37.5475H22.0988C24.3145 37.5493 26.4552 36.7449 28.1214 35.2843C29.7876 33.8238 30.8654 31.8069 31.1538 29.61C31.4288 25.22 31.705 20.8475 31.91 16.46C31.885 14.6725 30.475 13.1975 28.695 13.1225H25.4325C24.3403 13.1207 23.272 12.8021 22.3572 12.2052C21.4424 11.6084 20.7204 10.759 20.2788 9.75997C20.1644 9.47268 19.9665 9.22626 19.7108 9.05247C19.455 8.87869 19.153 8.78551 18.8438 8.78497H15.8775C11.5763 8.78497 8.09003 12.31 8.09003 16.66C8.09003 20.9975 8.36128 25.2625 8.64628 29.61Z" fill="url(#paint9_radial_10_168)"/>
<g filter="url(#filter1_f_10_168)">
<path d="M18.955 21.945L17.5788 26.2287C17.3425 27.1112 17.9075 27.9912 18.7075 27.9912H20.4125C21.2125 27.9912 21.7763 27.0975 21.5413 26.2287L20.3888 21.945C20.1413 20.995 19.2138 20.995 18.955 21.945Z" fill="#D69790"/>
</g>
<g filter="url(#filter2_f_10_168)">
<path d="M19 21.5L17.7613 25.785C17.5088 26.6662 18.115 27.5475 18.9738 27.5475H20.8063C21.6663 27.5475 22.2725 26.6525 22.02 25.785L20.7825 21.5012C20.5163 20.5512 19.2775 20.55 19 21.5Z" fill="#F6BFAB"/>
<path d="M19 21.5L17.7613 25.785C17.5088 26.6662 18.115 27.5475 18.9738 27.5475H20.8063C21.6663 27.5475 22.2725 26.6525 22.02 25.785L20.7825 21.5012C20.5163 20.5512 19.2775 20.55 19 21.5Z" fill="url(#paint10_linear_10_168)"/>
<path d="M19 21.5L17.7613 25.785C17.5088 26.6662 18.115 27.5475 18.9738 27.5475H20.8063C21.6663 27.5475 22.2725 26.6525 22.02 25.785L20.7825 21.5012C20.5163 20.5512 19.2775 20.55 19 21.5Z" fill="url(#paint11_radial_10_168)"/>
<path d="M19 21.5L17.7613 25.785C17.5088 26.6662 18.115 27.5475 18.9738 27.5475H20.8063C21.6663 27.5475 22.2725 26.6525 22.02 25.785L20.7825 21.5012C20.5163 20.5512 19.2775 20.55 19 21.5Z" fill="url(#paint12_linear_10_168)"/>
<path d="M19 21.5L17.7613 25.785C17.5088 26.6662 18.115 27.5475 18.9738 27.5475H20.8063C21.6663 27.5475 22.2725 26.6525 22.02 25.785L20.7825 21.5012C20.5163 20.5512 19.2775 20.55 19 21.5Z" fill="url(#paint13_radial_10_168)"/>
<path d="M19 21.5L17.7613 25.785C17.5088 26.6662 18.115 27.5475 18.9738 27.5475H20.8063C21.6663 27.5475 22.2725 26.6525 22.02 25.785L20.7825 21.5012C20.5163 20.5512 19.2775 20.55 19 21.5Z" fill="url(#paint14_linear_10_168)"/>
</g>
<g filter="url(#filter3_f_10_168)">
<path d="M16.705 29.0687C16.6178 29.023 16.518 29.0072 16.4209 29.0237C16.3238 29.0402 16.2348 29.0881 16.1675 29.16C16.0984 29.2289 16.0559 29.3201 16.0477 29.4174C16.0394 29.5146 16.066 29.6117 16.1225 29.6912C16.5351 30.3121 17.0952 30.821 17.7527 31.1722C18.4102 31.5234 19.1446 31.7061 19.89 31.7037C20.6357 31.7063 21.3703 31.5238 22.0281 31.1725C22.6858 30.8213 23.2461 30.3123 23.6588 29.6912C23.7152 29.6109 23.7415 29.5132 23.7331 29.4153C23.7246 29.3175 23.6819 29.2257 23.6125 29.1562C23.5449 29.0857 23.4561 29.039 23.3596 29.0232C23.2632 29.0074 23.1642 29.0234 23.0775 29.0687C22.0917 29.5729 20.9973 29.8315 19.89 29.8225C18.7225 29.8225 17.625 29.5487 16.705 29.0687Z" stroke="url(#paint15_linear_10_168)" stroke-width="0.09375"/>
</g>
<path d="M19.89 29.9162C18.768 29.9236 17.6607 29.6612 16.6612 29.1512C16.3425 28.9887 15.9987 29.3487 16.2 29.6387C16.6039 30.247 17.1525 30.7454 17.7965 31.0895C18.4405 31.4335 19.1598 31.6124 19.89 31.61C20.6201 31.6124 21.3394 31.4335 21.9835 31.0895C22.6275 30.7454 23.176 30.247 23.58 29.6387C23.7812 29.3362 23.4387 28.9887 23.1187 29.1512C22.1198 29.6626 21.0121 29.925 19.89 29.9162Z" fill="url(#paint16_radial_10_168)"/>
<g filter="url(#filter4_ii_10_168)">
<path d="M31.205 7.68499C32.4038 8.09749 33.48 8.93499 34.1588 10.135C34.6773 11.0397 34.9292 12.0726 34.8854 13.1145C34.8417 14.1563 34.5039 15.1645 33.9113 16.0225C33.5022 16.6234 33.2828 17.3331 33.2813 18.06V20.8287C32.812 20.5147 32.2824 20.3018 31.7263 20.2037L31.9088 16.46C31.8838 14.6725 30.475 13.1975 28.6963 13.1225H25.4325C24.3403 13.1207 23.272 12.8021 22.3572 12.2052C21.4424 11.6084 20.7204 10.759 20.2788 9.75999C20.1644 9.4727 19.9665 9.22627 19.7108 9.05248C19.455 8.8787 19.153 8.78553 18.8438 8.78499H15.8775C11.5763 8.78499 8.09003 12.31 8.09003 16.66L8.16253 20.2425C7.57003 20.33 6.95128 20.5275 6.48378 20.8575V18.06C6.48378 17.335 6.26128 16.6225 5.85378 16.0225C5.28911 15.1909 4.95995 14.222 4.90119 13.2185C4.84243 12.215 5.05627 11.2143 5.52003 10.3225C6.16024 9.09557 7.24228 8.15739 8.54753 7.69748C9.88546 7.22618 11.0232 6.31368 11.7738 5.10998C12.2594 4.32728 12.9365 3.68125 13.7411 3.23289C14.5458 2.78453 15.4514 2.54864 16.3725 2.54749C17.1263 2.54749 17.8425 2.70999 18.51 2.98499C19.4 3.37249 20.4013 3.37249 21.2913 2.98499C21.9638 2.69889 22.6867 2.55014 23.4175 2.54749C25.3825 2.54749 27.1013 3.60998 28.0525 5.18498C28.77 6.37248 29.895 7.23498 31.205 7.68499Z" fill="url(#paint17_linear_10_168)"/>
<path d="M31.205 7.68499C32.4038 8.09749 33.48 8.93499 34.1588 10.135C34.6773 11.0397 34.9292 12.0726 34.8854 13.1145C34.8417 14.1563 34.5039 15.1645 33.9113 16.0225C33.5022 16.6234 33.2828 17.3331 33.2813 18.06V20.8287C32.812 20.5147 32.2824 20.3018 31.7263 20.2037L31.9088 16.46C31.8838 14.6725 30.475 13.1975 28.6963 13.1225H25.4325C24.3403 13.1207 23.272 12.8021 22.3572 12.2052C21.4424 11.6084 20.7204 10.759 20.2788 9.75999C20.1644 9.4727 19.9665 9.22627 19.7108 9.05248C19.455 8.8787 19.153 8.78553 18.8438 8.78499H15.8775C11.5763 8.78499 8.09003 12.31 8.09003 16.66L8.16253 20.2425C7.57003 20.33 6.95128 20.5275 6.48378 20.8575V18.06C6.48378 17.335 6.26128 16.6225 5.85378 16.0225C5.28911 15.1909 4.95995 14.222 4.90119 13.2185C4.84243 12.215 5.05627 11.2143 5.52003 10.3225C6.16024 9.09557 7.24228 8.15739 8.54753 7.69748C9.88546 7.22618 11.0232 6.31368 11.7738 5.10998C12.2594 4.32728 12.9365 3.68125 13.7411 3.23289C14.5458 2.78453 15.4514 2.54864 16.3725 2.54749C17.1263 2.54749 17.8425 2.70999 18.51 2.98499C19.4 3.37249 20.4013 3.37249 21.2913 2.98499C21.9638 2.69889 22.6867 2.55014 23.4175 2.54749C25.3825 2.54749 27.1013 3.60998 28.0525 5.18498C28.77 6.37248 29.895 7.23498 31.205 7.68499Z" fill="url(#paint18_radial_10_168)"/>
<path d="M31.205 7.68499C32.4038 8.09749 33.48 8.93499 34.1588 10.135C34.6773 11.0397 34.9292 12.0726 34.8854 13.1145C34.8417 14.1563 34.5039 15.1645 33.9113 16.0225C33.5022 16.6234 33.2828 17.3331 33.2813 18.06V20.8287C32.812 20.5147 32.2824 20.3018 31.7263 20.2037L31.9088 16.46C31.8838 14.6725 30.475 13.1975 28.6963 13.1225H25.4325C24.3403 13.1207 23.272 12.8021 22.3572 12.2052C21.4424 11.6084 20.7204 10.759 20.2788 9.75999C20.1644 9.4727 19.9665 9.22627 19.7108 9.05248C19.455 8.8787 19.153 8.78553 18.8438 8.78499H15.8775C11.5763 8.78499 8.09003 12.31 8.09003 16.66L8.16253 20.2425C7.57003 20.33 6.95128 20.5275 6.48378 20.8575V18.06C6.48378 17.335 6.26128 16.6225 5.85378 16.0225C5.28911 15.1909 4.95995 14.222 4.90119 13.2185C4.84243 12.215 5.05627 11.2143 5.52003 10.3225C6.16024 9.09557 7.24228 8.15739 8.54753 7.69748C9.88546 7.22618 11.0232 6.31368 11.7738 5.10998C12.2594 4.32728 12.9365 3.68125 13.7411 3.23289C14.5458 2.78453 15.4514 2.54864 16.3725 2.54749C17.1263 2.54749 17.8425 2.70999 18.51 2.98499C19.4 3.37249 20.4013 3.37249 21.2913 2.98499C21.9638 2.69889 22.6867 2.55014 23.4175 2.54749C25.3825 2.54749 27.1013 3.60998 28.0525 5.18498C28.77 6.37248 29.895 7.23498 31.205 7.68499Z" fill="url(#paint19_radial_10_168)"/>
<path d="M31.205 7.68499C32.4038 8.09749 33.48 8.93499 34.1588 10.135C34.6773 11.0397 34.9292 12.0726 34.8854 13.1145C34.8417 14.1563 34.5039 15.1645 33.9113 16.0225C33.5022 16.6234 33.2828 17.3331 33.2813 18.06V20.8287C32.812 20.5147 32.2824 20.3018 31.7263 20.2037L31.9088 16.46C31.8838 14.6725 30.475 13.1975 28.6963 13.1225H25.4325C24.3403 13.1207 23.272 12.8021 22.3572 12.2052C21.4424 11.6084 20.7204 10.759 20.2788 9.75999C20.1644 9.4727 19.9665 9.22627 19.7108 9.05248C19.455 8.8787 19.153 8.78553 18.8438 8.78499H15.8775C11.5763 8.78499 8.09003 12.31 8.09003 16.66L8.16253 20.2425C7.57003 20.33 6.95128 20.5275 6.48378 20.8575V18.06C6.48378 17.335 6.26128 16.6225 5.85378 16.0225C5.28911 15.1909 4.95995 14.222 4.90119 13.2185C4.84243 12.215 5.05627 11.2143 5.52003 10.3225C6.16024 9.09557 7.24228 8.15739 8.54753 7.69748C9.88546 7.22618 11.0232 6.31368 11.7738 5.10998C12.2594 4.32728 12.9365 3.68125 13.7411 3.23289C14.5458 2.78453 15.4514 2.54864 16.3725 2.54749C17.1263 2.54749 17.8425 2.70999 18.51 2.98499C19.4 3.37249 20.4013 3.37249 21.2913 2.98499C21.9638 2.69889 22.6867 2.55014 23.4175 2.54749C25.3825 2.54749 27.1013 3.60998 28.0525 5.18498C28.77 6.37248 29.895 7.23498 31.205 7.68499Z" fill="url(#paint20_radial_10_168)"/>
<path d="M31.205 7.68499C32.4038 8.09749 33.48 8.93499 34.1588 10.135C34.6773 11.0397 34.9292 12.0726 34.8854 13.1145C34.8417 14.1563 34.5039 15.1645 33.9113 16.0225C33.5022 16.6234 33.2828 17.3331 33.2813 18.06V20.8287C32.812 20.5147 32.2824 20.3018 31.7263 20.2037L31.9088 16.46C31.8838 14.6725 30.475 13.1975 28.6963 13.1225H25.4325C24.3403 13.1207 23.272 12.8021 22.3572 12.2052C21.4424 11.6084 20.7204 10.759 20.2788 9.75999C20.1644 9.4727 19.9665 9.22627 19.7108 9.05248C19.455 8.8787 19.153 8.78553 18.8438 8.78499H15.8775C11.5763 8.78499 8.09003 12.31 8.09003 16.66L8.16253 20.2425C7.57003 20.33 6.95128 20.5275 6.48378 20.8575V18.06C6.48378 17.335 6.26128 16.6225 5.85378 16.0225C5.28911 15.1909 4.95995 14.222 4.90119 13.2185C4.84243 12.215 5.05627 11.2143 5.52003 10.3225C6.16024 9.09557 7.24228 8.15739 8.54753 7.69748C9.88546 7.22618 11.0232 6.31368 11.7738 5.10998C12.2594 4.32728 12.9365 3.68125 13.7411 3.23289C14.5458 2.78453 15.4514 2.54864 16.3725 2.54749C17.1263 2.54749 17.8425 2.70999 18.51 2.98499C19.4 3.37249 20.4013 3.37249 21.2913 2.98499C21.9638 2.69889 22.6867 2.55014 23.4175 2.54749C25.3825 2.54749 27.1013 3.60998 28.0525 5.18498C28.77 6.37248 29.895 7.23498 31.205 7.68499Z" fill="url(#paint21_radial_10_168)"/>
</g>
<g filter="url(#filter5_i_10_168)">
<path d="M28.59 16.2212C28.1812 15.8662 27.7075 15.49 26.9875 15.2625C26.2787 15.04 25.3912 14.98 24.1625 15.13C23.9922 15.1507 23.8372 15.2382 23.7315 15.3732C23.6258 15.5083 23.578 15.6798 23.5987 15.85C23.6195 16.0202 23.707 16.1753 23.842 16.281C23.977 16.3867 24.1485 16.4345 24.3187 16.4137C25.44 16.2762 26.1275 16.3475 26.6 16.4962C27.0625 16.6412 27.375 16.8775 27.7412 17.1962C27.8053 17.252 27.8796 17.2946 27.9601 17.3215C28.0406 17.3485 28.1256 17.3594 28.2102 17.3535C28.2949 17.3477 28.3776 17.3252 28.4536 17.2874C28.5296 17.2496 28.5974 17.1971 28.6531 17.1331C28.7088 17.0691 28.7514 16.9947 28.7784 16.9143C28.8054 16.8338 28.8163 16.7488 28.8104 16.6641C28.8045 16.5794 28.7821 16.4967 28.7442 16.4208C28.7064 16.3448 28.654 16.277 28.59 16.2212Z" fill="#202020"/>
</g>
<g filter="url(#filter6_i_10_168)">
<path d="M11.9413 15.9675C13.1639 15.2519 14.5877 14.9576 15.9938 15.13C16.164 15.1507 16.319 15.2382 16.4248 15.3732C16.5305 15.5083 16.5783 15.6797 16.5575 15.85C16.5368 16.0202 16.4493 16.1753 16.3143 16.281C16.1793 16.3867 16.0078 16.4345 15.8375 16.4137C14.7166 16.2757 13.5813 16.5083 12.605 17.0762C12.5324 17.1201 12.4615 17.1668 12.3925 17.2162L12.385 17.2212C12.2494 17.3262 12.0777 17.3729 11.9076 17.3512C11.7376 17.3296 11.5831 17.2412 11.4782 17.1056C11.3732 16.97 11.3265 16.7983 11.3482 16.6282C11.3698 16.4582 11.4582 16.3037 11.5938 16.1987L11.9413 15.9675Z" fill="#202020"/>
</g>
<g filter="url(#filter7_if_10_168)">
<path d="M20.4325 10.0787C20.378 9.97407 20.3267 9.86777 20.2787 9.75998C20.1643 9.47269 19.9665 9.22626 19.7107 9.05248C19.4549 8.87869 19.153 8.78552 18.8437 8.78498H15.8775C11.5762 8.78498 8.08999 12.31 8.08999 16.66V17.3012C7.29874 16.6987 6.30249 15.4262 6.30249 13.3675C6.30249 10.87 8.12374 9.60748 9.28499 8.80123C9.61374 8.57498 9.88874 8.38373 10.0562 8.21123C10.1343 8.13054 10.2118 8.04929 10.2887 7.96748C11.1037 7.10373 12.555 5.56373 15.0887 4.89123C16.7125 4.45998 18.3637 4.45623 19.4775 4.55498C20.0662 4.60873 20.4812 5.11873 20.4812 5.70998V10.0475L20.4312 10.0787H20.4325Z" fill="#23181C"/>
<path d="M20.4325 10.0787C20.378 9.97407 20.3267 9.86777 20.2787 9.75998C20.1643 9.47269 19.9665 9.22626 19.7107 9.05248C19.4549 8.87869 19.153 8.78552 18.8437 8.78498H15.8775C11.5762 8.78498 8.08999 12.31 8.08999 16.66V17.3012C7.29874 16.6987 6.30249 15.4262 6.30249 13.3675C6.30249 10.87 8.12374 9.60748 9.28499 8.80123C9.61374 8.57498 9.88874 8.38373 10.0562 8.21123C10.1343 8.13054 10.2118 8.04929 10.2887 7.96748C11.1037 7.10373 12.555 5.56373 15.0887 4.89123C16.7125 4.45998 18.3637 4.45623 19.4775 4.55498C20.0662 4.60873 20.4812 5.11873 20.4812 5.70998V10.0475L20.4312 10.0787H20.4325Z" fill="url(#paint22_radial_10_168)"/>
<path d="M20.4325 10.0787C20.378 9.97407 20.3267 9.86777 20.2787 9.75998C20.1643 9.47269 19.9665 9.22626 19.7107 9.05248C19.4549 8.87869 19.153 8.78552 18.8437 8.78498H15.8775C11.5762 8.78498 8.08999 12.31 8.08999 16.66V17.3012C7.29874 16.6987 6.30249 15.4262 6.30249 13.3675C6.30249 10.87 8.12374 9.60748 9.28499 8.80123C9.61374 8.57498 9.88874 8.38373 10.0562 8.21123C10.1343 8.13054 10.2118 8.04929 10.2887 7.96748C11.1037 7.10373 12.555 5.56373 15.0887 4.89123C16.7125 4.45998 18.3637 4.45623 19.4775 4.55498C20.0662 4.60873 20.4812 5.11873 20.4812 5.70998V10.0475L20.4312 10.0787H20.4325Z" fill="url(#paint23_radial_10_168)"/>
</g>
<g filter="url(#filter8_f_10_168)">
<path d="M32.0375 17.6925L31.9713 16.2212C31.9463 14.4412 30.475 12.9737 28.6963 12.8987H25.4325C24.42 12.8985 23.4262 12.6259 22.5553 12.1095C21.6844 11.5931 20.9684 10.852 20.4825 9.96373C20.4825 9.96373 20.005 8.85748 19.9 7.23873C19.8187 5.98873 20.95 5.09123 22.1937 5.25498C24.7762 5.59748 28.3613 6.40373 30.825 8.00998C34.89 10.6625 34.1788 15.4412 32.0375 17.6925Z" fill="#1F151B"/>
<path d="M32.0375 17.6925L31.9713 16.2212C31.9463 14.4412 30.475 12.9737 28.6963 12.8987H25.4325C24.42 12.8985 23.4262 12.6259 22.5553 12.1095C21.6844 11.5931 20.9684 10.852 20.4825 9.96373C20.4825 9.96373 20.005 8.85748 19.9 7.23873C19.8187 5.98873 20.95 5.09123 22.1937 5.25498C24.7762 5.59748 28.3613 6.40373 30.825 8.00998C34.89 10.6625 34.1788 15.4412 32.0375 17.6925Z" fill="url(#paint24_radial_10_168)"/>
<path d="M32.0375 17.6925L31.9713 16.2212C31.9463 14.4412 30.475 12.9737 28.6963 12.8987H25.4325C24.42 12.8985 23.4262 12.6259 22.5553 12.1095C21.6844 11.5931 20.9684 10.852 20.4825 9.96373C20.4825 9.96373 20.005 8.85748 19.9 7.23873C19.8187 5.98873 20.95 5.09123 22.1937 5.25498C24.7762 5.59748 28.3613 6.40373 30.825 8.00998C34.89 10.6625 34.1788 15.4412 32.0375 17.6925Z" fill="url(#paint25_radial_10_168)"/>
<path d="M32.0375 17.6925L31.9713 16.2212C31.9463 14.4412 30.475 12.9737 28.6963 12.8987H25.4325C24.42 12.8985 23.4262 12.6259 22.5553 12.1095C21.6844 11.5931 20.9684 10.852 20.4825 9.96373C20.4825 9.96373 20.005 8.85748 19.9 7.23873C19.8187 5.98873 20.95 5.09123 22.1937 5.25498C24.7762 5.59748 28.3613 6.40373 30.825 8.00998C34.89 10.6625 34.1788 15.4412 32.0375 17.6925Z" fill="url(#paint26_radial_10_168)"/>
</g>
<path d="M25.4625 19.2862C26.985 19.2862 28.27 20.3362 28.62 21.7537C28.6437 21.8482 28.6454 21.9469 28.625 22.0422C28.6047 22.1374 28.5628 22.2268 28.5026 22.3034C28.4424 22.38 28.3655 22.4418 28.2777 22.4841C28.19 22.5264 28.0937 22.5481 27.9963 22.5475H22.7963C22.7176 22.5475 22.6398 22.5302 22.5685 22.4968C22.4972 22.4634 22.4341 22.4148 22.3836 22.3543C22.3332 22.2939 22.2967 22.2231 22.2766 22.1469C22.2565 22.0708 22.2534 21.9912 22.2675 21.9137C22.4134 21.1735 22.8117 20.5069 23.3944 20.0277C23.9771 19.5485 24.7081 19.2865 25.4625 19.2862Z" fill="white"/>
<path d="M24.9812 19.9187C25.301 19.9191 25.6163 19.9932 25.9028 20.1353C26.1892 20.2773 26.4391 20.4835 26.6329 20.7378C26.8267 20.9921 26.9593 21.2876 27.0204 21.6015C27.0815 21.9154 27.0693 22.2391 26.985 22.5475H22.9662C22.9175 22.3686 22.8923 22.1841 22.8912 21.9987C22.8932 21.446 23.1144 20.9165 23.5062 20.5266C23.898 20.1367 24.4285 19.9181 24.9812 19.9187Z" fill="url(#paint27_radial_10_168)"/>
<path d="M23.79 22C23.7894 21.8433 23.8197 21.6881 23.8793 21.5432C23.939 21.3983 24.0267 21.2666 24.1374 21.1557C24.2481 21.0449 24.3797 20.9571 24.5245 20.8973C24.6694 20.8375 24.8246 20.807 24.9813 20.8075C25.6425 20.8075 26.1713 21.3375 26.1713 21.9988C26.1724 22.1897 26.1269 22.3781 26.0388 22.5475H23.9313C23.8361 22.3805 23.7873 22.1922 23.79 22Z" fill="black"/>
<g filter="url(#filter9_f_10_168)">
<path d="M24.8275 20.3587C24.9763 20.5575 24.665 20.7987 24.315 21.0625C23.9613 21.325 23.7 21.51 23.5525 21.3125C23.4038 21.1137 23.57 20.74 23.9213 20.4762C24.2738 20.2137 24.68 20.16 24.8275 20.3587Z" fill="#C7A7A3"/>
<path d="M24.8275 20.3587C24.9763 20.5575 24.665 20.7987 24.315 21.0625C23.9613 21.325 23.7 21.51 23.5525 21.3125C23.4038 21.1137 23.57 20.74 23.9213 20.4762C24.2738 20.2137 24.68 20.16 24.8275 20.3587Z" fill="url(#paint28_radial_10_168)"/>
</g>
<g filter="url(#filter10_f_10_168)">
<path d="M26.8325 21.725C26.7713 21.3178 26.5832 20.9403 26.295 20.6462L25.6888 21.3112L25.9613 21.8437L26.8325 21.725Z" fill="url(#paint29_linear_10_168)"/>
</g>
<path d="M14.3187 19.285C12.7962 19.285 11.51 20.335 11.1612 21.7537C11.1376 21.8482 11.1359 21.9469 11.1562 22.0422C11.1766 22.1374 11.2185 22.2268 11.2787 22.3034C11.3389 22.38 11.4158 22.4418 11.5035 22.4841C11.5913 22.5264 11.6876 22.5481 11.785 22.5475H16.985C17.0637 22.5475 17.1415 22.5302 17.2128 22.4968C17.2841 22.4634 17.3472 22.4148 17.3977 22.3543C17.4481 22.2939 17.4846 22.2231 17.5047 22.1469C17.5248 22.0708 17.5278 21.9912 17.5137 21.9137C17.3665 21.1742 16.9678 20.5084 16.3854 20.0294C15.803 19.5505 15.0728 19.2866 14.3187 19.285Z" fill="white"/>
<path d="M14.8 19.9187C14.4803 19.9191 14.165 19.9932 13.8785 20.1353C13.592 20.2773 13.3422 20.4835 13.1484 20.7378C12.9545 20.9921 12.8219 21.2876 12.7609 21.6015C12.6998 21.9154 12.7119 22.2391 12.7963 22.5475H16.8138C16.8613 22.3675 16.89 22.1875 16.89 21.9987C16.8864 21.4467 16.6649 20.9184 16.2737 20.5289C15.8825 20.1393 15.3521 19.92 14.8 19.9187Z" fill="url(#paint30_radial_10_168)"/>
<path d="M15.9913 22C15.9921 21.8434 15.9619 21.6881 15.9024 21.5432C15.8429 21.3983 15.7554 21.2667 15.6447 21.1558C15.5341 21.0449 15.4026 20.9571 15.2578 20.8973C15.1131 20.8375 14.9579 20.807 14.8013 20.8075C14.6446 20.8068 14.4893 20.8372 14.3444 20.8968C14.1995 20.9564 14.0679 21.0441 13.957 21.1548C13.8462 21.2656 13.7583 21.3971 13.6986 21.542C13.6388 21.6868 13.6083 21.842 13.6088 21.9987C13.6088 22.1987 13.6563 22.3862 13.7413 22.5475H15.85C15.9413 22.3788 15.9902 22.1905 15.9925 21.9987L15.9913 22Z" fill="black"/>
<g filter="url(#filter11_f_10_168)">
<path d="M16.7 21.755C16.7 21.0825 16.1538 20.635 16.0063 20.4987L15.335 21.1487L15.7475 21.9912L16.7013 21.7537L16.7 21.755Z" fill="url(#paint31_linear_10_168)"/>
</g>
<g filter="url(#filter12_f_10_168)">
<path d="M14.3879 21.214C14.8308 20.9793 15.0934 20.6072 14.9744 20.3827C14.8555 20.1582 14.4001 20.1664 13.9572 20.401C13.5143 20.6357 13.2517 21.0079 13.3706 21.2323C13.4896 21.4568 13.945 21.4486 14.3879 21.214Z" fill="#C7A7A3" fill-opacity="0.9"/>
<path d="M14.3879 21.214C14.8308 20.9793 15.0934 20.6072 14.9744 20.3827C14.8555 20.1582 14.4001 20.1664 13.9572 20.401C13.5143 20.6357 13.2517 21.0079 13.3706 21.2323C13.4896 21.4568 13.945 21.4486 14.3879 21.214Z" fill="url(#paint32_radial_10_168)"/>
</g>
<path d="M31.3613 26.2912C31.515 23.8112 31.6613 21.3337 31.7913 18.8537C32.6971 19.0124 33.5131 19.4984 34.0841 20.2193C34.655 20.9402 34.9412 21.8458 34.8881 22.764C34.835 23.6821 34.4464 24.5487 33.7962 25.199C33.1459 25.8493 32.2794 26.238 31.3613 26.2912Z" fill="url(#paint33_linear_10_168)"/>
<path d="M31.3613 26.2912C31.515 23.8112 31.6613 21.3337 31.7913 18.8537C32.6971 19.0124 33.5131 19.4984 34.0841 20.2193C34.655 20.9402 34.9412 21.8458 34.8881 22.764C34.835 23.6821 34.4464 24.5487 33.7962 25.199C33.1459 25.8493 32.2794 26.238 31.3613 26.2912Z" fill="url(#paint34_radial_10_168)"/>
<path d="M31.3613 26.2912C31.515 23.8112 31.6613 21.3337 31.7913 18.8537C32.6971 19.0124 33.5131 19.4984 34.0841 20.2193C34.655 20.9402 34.9412 21.8458 34.8881 22.764C34.835 23.6821 34.4464 24.5487 33.7962 25.199C33.1459 25.8493 32.2794 26.238 31.3613 26.2912Z" fill="url(#paint35_radial_10_168)"/>
<path d="M31.3613 26.2912C31.515 23.8112 31.6613 21.3337 31.7913 18.8537C32.6971 19.0124 33.5131 19.4984 34.0841 20.2193C34.655 20.9402 34.9412 21.8458 34.8881 22.764C34.835 23.6821 34.4464 24.5487 33.7962 25.199C33.1459 25.8493 32.2794 26.238 31.3613 26.2912Z" fill="url(#paint36_radial_10_168)"/>
<path d="M8.13502 18.8325C6.31376 19.09 4.89001 20.655 4.89001 22.5475C4.89018 23.5065 5.25772 24.4289 5.91707 25.1252C6.57642 25.8216 7.47749 26.2388 8.43502 26.2912C8.28502 23.8012 8.18251 21.3237 8.13502 18.8325Z" fill="url(#paint37_linear_10_168)"/>
<path d="M8.13502 18.8325C6.31376 19.09 4.89001 20.655 4.89001 22.5475C4.89018 23.5065 5.25772 24.4289 5.91707 25.1252C6.57642 25.8216 7.47749 26.2388 8.43502 26.2912C8.28502 23.8012 8.18251 21.3237 8.13502 18.8325Z" fill="url(#paint38_radial_10_168)"/>
<g filter="url(#filter13_f_10_168)">
<path d="M8.03874 20.3737C7.53019 20.4898 7.0785 20.7807 6.76243 21.1956C6.44636 21.6106 6.28595 22.1233 6.30915 22.6445C6.33236 23.1656 6.53772 23.662 6.88942 24.0472C7.24113 24.4325 7.71688 24.682 8.23374 24.7525C8.15249 23.2925 8.08374 21.8337 8.03874 20.3737Z" fill="url(#paint39_radial_10_168)"/>
</g>
<g filter="url(#filter14_f_10_168)">
<path d="M31.5563 24.79C31.6463 23.3112 31.7338 21.8337 31.815 20.355C32.3753 20.4255 32.8878 20.7062 33.2489 21.1404C33.6099 21.5746 33.7924 22.1298 33.7596 22.6935C33.7267 23.2572 33.4808 23.7874 33.0717 24.1766C32.6626 24.5659 32.1209 24.7851 31.5563 24.79Z" fill="url(#paint40_linear_10_168)"/>
</g>
<g filter="url(#filter15_f_10_168)">
<path d="M12.0287 16.62C12.6287 16.19 14.1212 15.4337 15.8862 15.7312" stroke="#353535" stroke-width="0.15625" stroke-linecap="round"/>
</g>
<g filter="url(#filter16_f_10_168)">
<path d="M28.19 16.5125C27.59 16.0825 26.0975 15.3262 24.3325 15.6237" stroke="#353535" stroke-width="0.15625" stroke-linecap="round"/>
</g>
<defs>
<filter id="filter0_ii_10_168" x="8.09003" y="8.78497" width="24.445" height="28.8875" filterUnits="userSpaceOnUse" color-interpolation-filters="sRGB">
<feFlood flood-opacity="0" result="BackgroundImageFix"/>
<feBlend mode="normal" in="SourceGraphic" in2="BackgroundImageFix" result="shape"/>
<feColorMatrix in="SourceAlpha" type="matrix" values="0 0 0 0 0 0 0 0 0 0 0 0 0 0 0 0 0 0 127 0" result="hardAlpha"/>
<feOffset dx="0.625"/>
<feGaussianBlur stdDeviation="0.4375"/>
<feComposite in2="hardAlpha" operator="arithmetic" k2="-1" k3="1"/>
<feColorMatrix type="matrix" values="0 0 0 0 0.913725 0 0 0 0 0.686275 0 0 0 0 0.592157 0 0 0 1 0"/>
<feBlend mode="normal" in2="shape" result="effect1_innerShadow_10_168"/>
<feColorMatrix in="SourceAlpha" type="matrix" values="0 0 0 0 0 0 0 0 0 0 0 0 0 0 0 0 0 0 127 0" result="hardAlpha"/>
<feOffset dy="0.125"/>
<feGaussianBlur stdDeviation="0.234375"/>
<feComposite in2="hardAlpha" operator="arithmetic" k2="-1" k3="1"/>
<feColorMatrix type="matrix" values="0 0 0 0 0.780392 0 0 0 0 0.568627 0 0 0 0 0.486275 0 0 0 1 0"/>
<feBlend mode="normal" in2="effect1_innerShadow_10_168" result="effect2_innerShadow_10_168"/>
</filter>
<filter id="filter1_f_10_168" x="16.8995" y="20.6075" width="5.3205" height="8.00876" filterUnits="userSpaceOnUse" color-interpolation-filters="sRGB">
<feFlood flood-opacity="0" result="BackgroundImageFix"/>
<feBlend mode="normal" in="SourceGraphic" in2="BackgroundImageFix" result="shape"/>
<feGaussianBlur stdDeviation="0.3125" result="effect1_foregroundBlur_10_168"/>
</filter>
<filter id="filter2_f_10_168" x="17.5785" y="20.6631" width="4.62427" height="7.00937" filterUnits="userSpaceOnUse" color-interpolation-filters="sRGB">
<feFlood flood-opacity="0" result="BackgroundImageFix"/>
<feBlend mode="normal" in="SourceGraphic" in2="BackgroundImageFix" result="shape"/>
<feGaussianBlur stdDeviation="0.0625" result="effect1_foregroundBlur_10_168"/>
</filter>
<filter id="filter3_f_10_168" x="15.9368" y="28.9079" width="7.90717" height="2.90524" filterUnits="userSpaceOnUse" color-interpolation-filters="sRGB">
<feFlood flood-opacity="0" result="BackgroundImageFix"/>
<feBlend mode="normal" in="SourceGraphic" in2="BackgroundImageFix" result="shape"/>
<feGaussianBlur stdDeviation="0.03125" result="effect1_foregroundBlur_10_168"/>
</filter>
<filter id="filter4_ii_10_168" x="4.89166" y="2.23499" width="29.9987" height="18.6225" filterUnits="userSpaceOnUse" color-interpolation-filters="sRGB">
<feFlood flood-opacity="0" result="BackgroundImageFix"/>
<feBlend mode="normal" in="SourceGraphic" in2="BackgroundImageFix" result="shape"/>
<feColorMatrix in="SourceAlpha" type="matrix" values="0 0 0 0 0 0 0 0 0 0 0 0 0 0 0 0 0 0 127 0" result="hardAlpha"/>
<feOffset dy="-0.3125"/>
<feGaussianBlur stdDeviation="0.390625"/>
<feComposite in2="hardAlpha" operator="arithmetic" k2="-1" k3="1"/>
<feColorMatrix type="matrix" values="0 0 0 0 0.137255 0 0 0 0 0.0901961 0 0 0 0 0.145098 0 0 0 1 0"/>
<feBlend mode="normal" in2="shape" result="effect1_innerShadow_10_168"/>
<feColorMatrix in="SourceAlpha" type="matrix" values="0 0 0 0 0 0 0 0 0 0 0 0 0 0 0 0 0 0 127 0" result="hardAlpha"/>
<feOffset dy="-0.125"/>
<feGaussianBlur stdDeviation="0.125"/>
<feComposite in2="hardAlpha" operator="arithmetic" k2="-1" k3="1"/>
<feColorMatrix type="matrix" values="0 0 0 0 0.0784314 0 0 0 0 0.0352941 0 0 0 0 0.0470588 0 0 0 1 0"/>
<feBlend mode="normal" in2="effect1_innerShadow_10_168" result="effect2_innerShadow_10_168"/>
</filter>
<filter id="filter5_i_10_168" x="23.594" y="14.9223" width="5.28046" height="2.43274" filterUnits="userSpaceOnUse" color-interpolation-filters="sRGB">
<feFlood flood-opacity="0" result="BackgroundImageFix"/>
<feBlend mode="normal" in="SourceGraphic" in2="BackgroundImageFix" result="shape"/>
<feColorMatrix in="SourceAlpha" type="matrix" values="0 0 0 0 0 0 0 0 0 0 0 0 0 0 0 0 0 0 127 0" result="hardAlpha"/>
<feOffset dx="0.0625" dy="-0.125"/>
<feGaussianBlur stdDeviation="0.078125"/>
<feComposite in2="hardAlpha" operator="arithmetic" k2="-1" k3="1"/>
<feColorMatrix type="matrix" values="0 0 0 0 0.0588235 0 0 0 0 0.054902 0 0 0 0 0.0588235 0 0 0 1 0"/>
<feBlend mode="normal" in2="shape" result="effect1_innerShadow_10_168"/>
</filter>
<filter id="filter6_i_10_168" x="11.343" y="14.9569" width="5.2818" height="2.39951" filterUnits="userSpaceOnUse" color-interpolation-filters="sRGB">
<feFlood flood-opacity="0" result="BackgroundImageFix"/>
<feBlend mode="normal" in="SourceGraphic" in2="BackgroundImageFix" result="shape"/>
<feColorMatrix in="SourceAlpha" type="matrix" values="0 0 0 0 0 0 0 0 0 0 0 0 0 0 0 0 0 0 127 0" result="hardAlpha"/>
<feOffset dx="0.0625" dy="-0.125"/>
<feGaussianBlur stdDeviation="0.078125"/>
<feComposite in2="hardAlpha" operator="arithmetic" k2="-1" k3="1"/>
<feColorMatrix type="matrix" values="0 0 0 0 0.0588235 0 0 0 0 0.054902 0 0 0 0 0.0588235 0 0 0 1 0"/>
<feBlend mode="normal" in2="shape" result="effect1_innerShadow_10_168"/>
</filter>
<filter id="filter7_if_10_168" x="5.98999" y="4.18982" width="14.8038" height="13.4239" filterUnits="userSpaceOnUse" color-interpolation-filters="sRGB">
<feFlood flood-opacity="0" result="BackgroundImageFix"/>
<feBlend mode="normal" in="SourceGraphic" in2="BackgroundImageFix" result="shape"/>
<feColorMatrix in="SourceAlpha" type="matrix" values="0 0 0 0 0 0 0 0 0 0 0 0 0 0 0 0 0 0 127 0" result="hardAlpha"/>
<feOffset dx="0.25" dy="0.125"/>
<feGaussianBlur stdDeviation="0.125"/>
<feComposite in2="hardAlpha" operator="arithmetic" k2="-1" k3="1"/>
<feColorMatrix type="matrix" values="0 0 0 0 0.286275 0 0 0 0 0.243137 0 0 0 0 0.227451 0 0 0 1 0"/>
<feBlend mode="normal" in2="shape" result="effect1_innerShadow_10_168"/>
<feGaussianBlur stdDeviation="0.15625" result="effect2_foregroundBlur_10_168"/>
</filter>
<filter id="filter8_f_10_168" x="19.5834" y="4.92319" width="14.4915" height="13.0818" filterUnits="userSpaceOnUse" color-interpolation-filters="sRGB">
<feFlood flood-opacity="0" result="BackgroundImageFix"/>
<feBlend mode="normal" in="SourceGraphic" in2="BackgroundImageFix" result="shape"/>
<feGaussianBlur stdDeviation="0.15625" result="effect1_foregroundBlur_10_168"/>
</filter>
<filter id="filter9_f_10_168" x="23.4355" y="20.1761" width="1.49261" height="1.28165" filterUnits="userSpaceOnUse" color-interpolation-filters="sRGB">
<feFlood flood-opacity="0" result="BackgroundImageFix"/>
<feBlend mode="normal" in="SourceGraphic" in2="BackgroundImageFix" result="shape"/>
<feGaussianBlur stdDeviation="0.03125" result="effect1_foregroundBlur_10_168"/>
</filter>
<filter id="filter10_f_10_168" x="25.5638" y="20.5212" width="1.39374" height="1.44751" filterUnits="userSpaceOnUse" color-interpolation-filters="sRGB">
<feFlood flood-opacity="0" result="BackgroundImageFix"/>
<feBlend mode="normal" in="SourceGraphic" in2="BackgroundImageFix" result="shape"/>
<feGaussianBlur stdDeviation="0.0625" result="effect1_foregroundBlur_10_168"/>
</filter>
<filter id="filter11_f_10_168" x="15.21" y="20.3737" width="1.61627" height="1.74249" filterUnits="userSpaceOnUse" color-interpolation-filters="sRGB">
<feFlood flood-opacity="0" result="BackgroundImageFix"/>
<feBlend mode="normal" in="SourceGraphic" in2="BackgroundImageFix" result="shape"/>
<feGaussianBlur stdDeviation="0.0625" result="effect1_foregroundBlur_10_168"/>
</filter>
<filter id="filter12_f_10_168" x="13.2795" y="20.157" width="1.78607" height="1.30096" filterUnits="userSpaceOnUse" color-interpolation-filters="sRGB">
<feFlood flood-opacity="0" result="BackgroundImageFix"/>
<feBlend mode="normal" in="SourceGraphic" in2="BackgroundImageFix" result="shape"/>
<feGaussianBlur stdDeviation="0.03125" result="effect1_foregroundBlur_10_168"/>
</filter>
<filter id="filter13_f_10_168" x="6.1507" y="20.2175" width="2.23932" height="4.69125" filterUnits="userSpaceOnUse" color-interpolation-filters="sRGB">
<feFlood flood-opacity="0" result="BackgroundImageFix"/>
<feBlend mode="normal" in="SourceGraphic" in2="BackgroundImageFix" result="shape"/>
<feGaussianBlur stdDeviation="0.078125" result="effect1_foregroundBlur_10_168"/>
</filter>
<filter id="filter14_f_10_168" x="31.2438" y="20.0425" width="2.83209" height="5.06" filterUnits="userSpaceOnUse" color-interpolation-filters="sRGB">
<feFlood flood-opacity="0" result="BackgroundImageFix"/>
<feBlend mode="normal" in="SourceGraphic" in2="BackgroundImageFix" result="shape"/>
<feGaussianBlur stdDeviation="0.15625" result="effect1_foregroundBlur_10_168"/>
</filter>
<filter id="filter15_f_10_168" x="11.7944" y="15.4293" width="4.32623" height="1.42508" filterUnits="userSpaceOnUse" color-interpolation-filters="sRGB">
<feFlood flood-opacity="0" result="BackgroundImageFix"/>
<feBlend mode="normal" in="SourceGraphic" in2="BackgroundImageFix" result="shape"/>
<feGaussianBlur stdDeviation="0.078125" result="effect1_foregroundBlur_10_168"/>
</filter>
<filter id="filter16_f_10_168" x="24.0981" y="15.3218" width="4.32623" height="1.42508" filterUnits="userSpaceOnUse" color-interpolation-filters="sRGB">
<feFlood flood-opacity="0" result="BackgroundImageFix"/>
<feBlend mode="normal" in="SourceGraphic" in2="BackgroundImageFix" result="shape"/>
<feGaussianBlur stdDeviation="0.078125" result="effect1_foregroundBlur_10_168"/>
</filter>
<radialGradient id="paint0_radial_10_168" cx="0" cy="0" r="1" gradientUnits="userSpaceOnUse" gradientTransform="translate(30.9688 25.36) rotate(69.6569) scale(5.01965 5.96295)">
<stop offset="0.215" stop-color="#313131"/>
<stop offset="1" stop-color="#1A161E"/>
</radialGradient>
<radialGradient id="paint1_radial_10_168" cx="0" cy="0" r="1" gradientUnits="userSpaceOnUse" gradientTransform="translate(5.77501 26.5025) rotate(17.4471) scale(3.60685 11.1274)">
<stop stop-color="#564943"/>
<stop offset="0.746" stop-color="#1E191C"/>
</radialGradient>
<radialGradient id="paint2_radial_10_168" cx="0" cy="0" r="1" gradientUnits="userSpaceOnUse" gradientTransform="translate(26.4338 23.1662) rotate(180) scale(12.1836 21.5526)">
<stop stop-color="#FFDCC0"/>
<stop offset="1" stop-color="#D6A195"/>
</radialGradient>
<linearGradient id="paint3_linear_10_168" x1="31.9088" y1="27.0937" x2="21.765" y2="27.0937" gradientUnits="userSpaceOnUse">
<stop stop-color="#FFD6BA"/>
<stop offset="1" stop-color="#FFD6BA" stop-opacity="0"/>
</linearGradient>
<radialGradient id="paint4_radial_10_168" cx="0" cy="0" r="1" gradientUnits="userSpaceOnUse" gradientTransform="translate(23.575 9.38497) rotate(94.4701) scale(29.8468 24.7166)">
<stop offset="0.767" stop-color="#B57997" stop-opacity="0"/>
<stop offset="1" stop-color="#B57997"/>
</radialGradient>
<radialGradient id="paint5_radial_10_168" cx="0" cy="0" r="1" gradientUnits="userSpaceOnUse" gradientTransform="translate(25.5938 20.1062) rotate(-90) scale(2.67625 3.31186)">
<stop offset="0.325" stop-color="#F6B8A8"/>
<stop offset="1" stop-color="#F6B8A8" stop-opacity="0"/>
</radialGradient>
<radialGradient id="paint6_radial_10_168" cx="0" cy="0" r="1" gradientUnits="userSpaceOnUse" gradientTransform="translate(14.53 20.215) rotate(-89.7941) scale(2.55025 2.77527)">
<stop offset="0.378" stop-color="#D39991"/>
<stop offset="1" stop-color="#D39991" stop-opacity="0"/>
</radialGradient>
<radialGradient id="paint7_radial_10_168" cx="0" cy="0" r="1" gradientUnits="userSpaceOnUse" gradientTransform="translate(27.8906 25.4705) rotate(176.388) scale(19.8394 50.6797)">
<stop offset="0.836" stop-color="#E6AD97" stop-opacity="0"/>
<stop offset="1" stop-color="#E6AD97"/>
</radialGradient>
<radialGradient id="paint8_radial_10_168" cx="0" cy="0" r="1" gradientUnits="userSpaceOnUse" gradientTransform="translate(7.14878 13.0862) rotate(-46.6112) scale(10.5116 3.848)">
<stop offset="0.428" stop-color="#9F6D5C"/>
<stop offset="1" stop-color="#9F6D5C" stop-opacity="0"/>
</radialGradient>
<radialGradient id="paint9_radial_10_168" cx="0" cy="0" r="1" gradientUnits="userSpaceOnUse" gradientTransform="translate(25.5475 11.5625) rotate(121.159) scale(7.85147 6.48203)">
<stop offset="0.078" stop-color="#F6C3B0"/>
<stop offset="1" stop-color="#F6C3B0" stop-opacity="0"/>
</radialGradient>
<linearGradient id="paint10_linear_10_168" x1="21.8438" y1="24.7387" x2="19.89" y2="24.82" gradientUnits="userSpaceOnUse">
<stop offset="0.36" stop-color="#FFDFC7"/>
<stop offset="1" stop-color="#FFDFC7" stop-opacity="0"/>
</linearGradient>
<radialGradient id="paint11_radial_10_168" cx="0" cy="0" r="1" gradientUnits="userSpaceOnUse" gradientTransform="translate(20.9775 26.3375) rotate(90) scale(0.568875 1.78792)">
<stop stop-color="#FFDDC7"/>
<stop offset="1" stop-color="#FFDDC7" stop-opacity="0"/>
</radialGradient>
<linearGradient id="paint12_linear_10_168" x1="19.89" y1="27.3937" x2="19.89" y2="26.31" gradientUnits="userSpaceOnUse">
<stop stop-color="#D89793"/>
<stop offset="1" stop-color="#D89793" stop-opacity="0"/>
</linearGradient>
<radialGradient id="paint13_radial_10_168" cx="0" cy="0" r="1" gradientUnits="userSpaceOnUse" gradientTransform="translate(21.2479 25.0112) rotate(155.369) scale(3.8999 6.26746)">
<stop offset="0.714" stop-color="#D3968C" stop-opacity="0"/>
<stop offset="1" stop-color="#D3968C"/>
</radialGradient>
<linearGradient id="paint14_linear_10_168" x1="19.89" y1="20.7887" x2="19.89" y2="22.3637" gradientUnits="userSpaceOnUse">
<stop stop-color="#E8BBA8"/>
<stop offset="1" stop-color="#E8BBA8" stop-opacity="0"/>
</linearGradient>
<linearGradient id="paint15_linear_10_168" x1="17.09" y1="31.055" x2="17.8325" y2="29.11" gradientUnits="userSpaceOnUse">
<stop stop-color="#E1ACA6"/>
<stop offset="1" stop-color="#E1ACA6" stop-opacity="0"/>
</linearGradient>
<radialGradient id="paint16_radial_10_168" cx="0" cy="0" r="1" gradientUnits="userSpaceOnUse" gradientTransform="translate(19.89 31.415) rotate(-90) scale(1.67969 6.75781)">
<stop stop-color="#88014E"/>
<stop offset="1" stop-color="#86004D"/>
</radialGradient>
<linearGradient id="paint17_linear_10_168" x1="35.8588" y1="9.96874" x2="8.79628" y2="9.96874" gradientUnits="userSpaceOnUse">
<stop stop-color="#443D40"/>
<stop offset="1" stop-color="#272127"/>
</linearGradient>
<radialGradient id="paint18_radial_10_168" cx="0" cy="0" r="1" gradientUnits="userSpaceOnUse" gradientTransform="translate(7.70253 16.425) rotate(-90) scale(8.15989 20.6354)">
<stop offset="0.536" stop-color="#3E3433"/>
<stop offset="1" stop-color="#3E3433" stop-opacity="0"/>
</radialGradient>
<radialGradient id="paint19_radial_10_168" cx="0" cy="0" r="1" gradientUnits="userSpaceOnUse" gradientTransform="translate(31.2171 19.4787) rotate(-87.401) scale(5.86155 10.3855)">
<stop stop-color="#4F4D4D"/>
<stop offset="1" stop-color="#4F4D4D" stop-opacity="0"/>
</radialGradient>
<radialGradient id="paint20_radial_10_168" cx="0" cy="0" r="1" gradientUnits="userSpaceOnUse" gradientTransform="translate(29.4599 4.8521) rotate(-146.667) scale(6.57971 4.82985)">
<stop stop-color="#5E5A5B"/>
<stop offset="1" stop-color="#5E5A5B" stop-opacity="0"/>
</radialGradient>
<radialGradient id="paint21_radial_10_168" cx="0" cy="0" r="1" gradientUnits="userSpaceOnUse" gradientTransform="translate(17.7813 1.14124) rotate(58.4652) scale(4.0331 9.33876)">
<stop offset="0.287" stop-color="#484646"/>
<stop offset="1" stop-color="#484646" stop-opacity="0"/>
</radialGradient>
<radialGradient id="paint22_radial_10_168" cx="0" cy="0" r="1" gradientUnits="userSpaceOnUse" gradientTransform="translate(20.4812 6.40623) rotate(180) scale(5.12976 1.90385)">
<stop stop-color="#423C3F"/>
<stop offset="1" stop-color="#423C3F" stop-opacity="0"/>
</radialGradient>
<radialGradient id="paint23_radial_10_168" cx="0" cy="0" r="1" gradientUnits="userSpaceOnUse" gradientTransform="translate(7.23374 15.5937) rotate(-57.7243) scale(14.0451 15.5605)">
<stop offset="0.093" stop-color="#0B0306"/>
<stop offset="0.311" stop-color="#1C0C20"/>
<stop offset="1" stop-color="#1C0C20" stop-opacity="0"/>
</radialGradient>
<radialGradient id="paint24_radial_10_168" cx="0" cy="0" r="1" gradientUnits="userSpaceOnUse" gradientTransform="translate(27.8463 8.21623) scale(7.12761 2.78678)">
<stop stop-color="#4E494B"/>
<stop offset="1" stop-color="#4E494B" stop-opacity="0"/>
</radialGradient>
<radialGradient id="paint25_radial_10_168" cx="0" cy="0" r="1" gradientUnits="userSpaceOnUse" gradientTransform="translate(26.0288 15.295) rotate(-43.6141) scale(8.62264 15.7859)">
<stop offset="0.857" stop-color="#545051" stop-opacity="0"/>
<stop offset="1" stop-color="#545051"/>
</radialGradient>
<radialGradient id="paint26_radial_10_168" cx="0" cy="0" r="1" gradientUnits="userSpaceOnUse" gradientTransform="translate(23.9625 11.8537) rotate(6.6667) scale(7.62155 3.191)">
<stop stop-color="#200E25"/>
<stop offset="1" stop-color="#200E25" stop-opacity="0"/>
</radialGradient>
<radialGradient id="paint27_radial_10_168" cx="0" cy="0" r="1" gradientUnits="userSpaceOnUse" gradientTransform="translate(24.975 21.0312) rotate(90) scale(1.89079 3.00751)">
<stop offset="0.802" stop-color="#7D574A"/>
<stop offset="1" stop-color="#664842"/>
</radialGradient>
<radialGradient id="paint28_radial_10_168" cx="0" cy="0" r="1" gradientUnits="userSpaceOnUse" gradientTransform="translate(24.4439 21.2267) rotate(-127.812) scale(0.881599 1.21376)">
<stop offset="0.766" stop-color="#FFE6E2" stop-opacity="0"/>
<stop offset="0.966" stop-color="#FFE6E2"/>
</radialGradient>
<linearGradient id="paint29_linear_10_168" x1="26.7888" y1="21.1562" x2="26.0575" y2="21.6075" gradientUnits="userSpaceOnUse">
<stop stop-color="#B4948D"/>
<stop offset="1" stop-color="#B4948D" stop-opacity="0"/>
</linearGradient>
<radialGradient id="paint30_radial_10_168" cx="0" cy="0" r="1" gradientUnits="userSpaceOnUse" gradientTransform="translate(14.805 21.0312) rotate(90) scale(1.89089 3.00767)">
<stop offset="0.802" stop-color="#7D574A"/>
<stop offset="1" stop-color="#664842"/>
</radialGradient>
<linearGradient id="paint31_linear_10_168" x1="16.5388" y1="21.1562" x2="15.8075" y2="21.6075" gradientUnits="userSpaceOnUse">
<stop stop-color="#B4948D"/>
<stop offset="1" stop-color="#B4948D" stop-opacity="0"/>
</linearGradient>
<radialGradient id="paint32_radial_10_168" cx="0" cy="0" r="1" gradientUnits="userSpaceOnUse" gradientTransform="translate(14.4854 21.4736) rotate(-118.811) scale(1.15161 1.38429)">
<stop offset="0.766" stop-color="#FFE6E2" stop-opacity="0"/>
<stop offset="0.966" stop-color="#FFE6E2"/>
</radialGradient>
<linearGradient id="paint33_linear_10_168" x1="34.89" y1="21.2187" x2="32.0775" y2="26.2912" gradientUnits="userSpaceOnUse">
<stop stop-color="#FFD6BD"/>
<stop offset="1" stop-color="#F0B8A6"/>
</linearGradient>
<radialGradient id="paint34_radial_10_168" cx="0" cy="0" r="1" gradientUnits="userSpaceOnUse" gradientTransform="translate(30.652 21.0636) rotate(74.347) scale(5.42933 5.18)">
<stop offset="0.856" stop-color="#CE978E" stop-opacity="0"/>
<stop offset="1" stop-color="#CE978E"/>
</radialGradient>
<radialGradient id="paint35_radial_10_168" cx="0" cy="0" r="1" gradientUnits="userSpaceOnUse" gradientTransform="translate(31.4925 22.3325) rotate(-53.9199) scale(3.11749 2.61307)">
<stop offset="0.664" stop-color="#F7B99C"/>
<stop offset="1" stop-color="#F7B99C" stop-opacity="0"/>
</radialGradient>
<radialGradient id="paint36_radial_10_168" cx="0" cy="0" r="1" gradientUnits="userSpaceOnUse" gradientTransform="translate(31.7575 22.735) rotate(-69.2631) scale(3.86357 5.16227)">
<stop offset="0.803" stop-color="#EBBB9D" stop-opacity="0"/>
<stop offset="1" stop-color="#EBBB9D"/>
</radialGradient>
<linearGradient id="paint37_linear_10_168" x1="6.25751" y1="22.86" x2="9.65627" y2="22.5625" gradientUnits="userSpaceOnUse">
<stop stop-color="#D19787"/>
<stop offset="1" stop-color="#C9887D"/>
</linearGradient>
<radialGradient id="paint38_radial_10_168" cx="0" cy="0" r="1" gradientUnits="userSpaceOnUse" gradientTransform="translate(8.4342 22.5633) rotate(-173.034) scale(3.78746 4.06568)">
<stop offset="0.775" stop-color="#E8AF99" stop-opacity="0"/>
<stop offset="1" stop-color="#E8AF99"/>
</radialGradient>
<radialGradient id="paint39_radial_10_168" cx="0" cy="0" r="1" gradientUnits="userSpaceOnUse" gradientTransform="translate(8.43749 22.5625) rotate(170.26) scale(2.16711 2.65916)">
<stop stop-color="#C18472"/>
<stop offset="1" stop-color="#CA8B7A"/>
</radialGradient>
<linearGradient id="paint40_linear_10_168" x1="32.66" y1="20.355" x2="32.66" y2="24.79" gradientUnits="userSpaceOnUse">
<stop stop-color="#F9BB9E"/>
<stop offset="1" stop-color="#F6BBA0"/>
</linearGradient>
</defs>
</svg>
