<svg width="49" height="49" viewBox="0 0 49 49" fill="none" xmlns="http://www.w3.org/2000/svg">
<g clip-path="url(#clip0_10_20)">
<rect width="38" height="38" transform="translate(48.0177 36.0743) rotate(161.681)" fill="#22272C"/>
<mask id="mask0_10_20" style="mask-type:luminance" maskUnits="userSpaceOnUse" x="0" y="0" width="49" height="49">
<path d="M11.9434 48.0177L48.0177 36.0743L36.0743 -1.45435e-05L-1.45435e-05 11.9434L11.9434 48.0177Z" fill="white"/>
</mask>
<g mask="url(#mask0_10_20)">
<path d="M18.1236 6.23275C27.9253 2.98759 38.5404 8.32053 41.7856 18.1223C45.0307 27.9241 39.6959 38.5398 29.8941 41.7849C20.0914 45.0304 9.47664 39.6952 6.23149 29.8935C2.98633 20.0917 8.32084 9.47821 18.1236 6.23275ZM29.2749 39.9147C38.0457 37.0109 42.817 27.5119 39.9135 18.7421C37.01 9.97224 27.5135 5.19909 18.7427 8.10292C9.97193 11.0067 5.19909 20.5041 8.1026 29.274C11.0061 38.0438 20.5041 42.8186 29.2749 39.9147Z" fill="#E86161"/>
<path d="M33.8918 28.7754C32.6007 29.2028 31.2057 28.5017 30.7782 27.2107C30.3505 25.9186 31.0512 24.5226 32.3423 24.0952C33.6343 23.6674 35.0287 24.3698 35.4565 25.6618C35.8839 26.9529 35.1838 28.3476 33.8918 28.7754Z" fill="#E86161"/>
<path d="M25.7608 29.3006C24.4688 29.7284 23.0747 29.027 22.6472 27.7359C22.2195 26.4439 22.9193 25.0482 24.2113 24.6204C25.5033 24.1927 26.8977 24.895 27.3255 26.187C27.753 27.4781 27.0528 28.8728 25.7608 29.3006Z" fill="#E86161"/>
<path d="M17.2022 28.5372C15.9111 28.9646 14.516 28.2636 14.0886 26.9725C13.6608 25.6805 14.3616 24.2845 15.6527 23.857C16.9447 23.4293 18.3391 24.1316 18.7669 25.4236C19.1943 26.7147 18.4942 28.1094 17.2022 28.5372Z" fill="#E86161"/>
</g>
</g>
<defs>
<clipPath id="clip0_10_20">
<rect width="38" height="38" fill="white" transform="translate(48.0177 36.0743) rotate(161.681)"/>
</clipPath>
</defs>
</svg>
