<svg width="30" height="30" viewBox="0 0 30 30" fill="none" xmlns="http://www.w3.org/2000/svg">
<path d="M27 30H3C2.20459 29.9994 1.44199 29.7735 0.879557 29.3717C0.31712 28.97 0.000794215 28.4253 0 27.8571V2.14286C0.000794215 1.57471 0.31712 1.03 0.879557 0.628255C1.44199 0.226514 2.20459 0.000567296 3 0H27C27.7954 0.000567296 28.558 0.226514 29.1204 0.628255C29.6829 1.03 29.9992 1.57471 30 2.14286V19.9479L22.5 17.2693L15 19.9479V2.14286H3V27.8571H27V23.5714H30V27.8571C29.9988 28.4252 29.6824 28.9698 29.12 29.3714C28.5577 29.7731 27.7953 29.9991 27 30ZM22.5 14.8736L27 16.4807V2.14286H18V16.4807L22.5 14.8736Z" fill="#8BDC77"/>
</svg>
