<svg width="30" height="30" viewBox="0 0 30 30" fill="none" xmlns="http://www.w3.org/2000/svg">
<path d="M16.7359 0C24.0636 0 30 6.75 30 15C30 23.25 24.0636 30 16.7359 30C12.0848 30 8.01678 27.27 5.64488 23.145L7.73852 21.27C9.60689 24.705 12.9329 27 16.7491 27C19.5606 27 22.2569 25.7357 24.2449 23.4853C26.233 21.2348 27.3498 18.1826 27.3498 15C27.3498 11.8174 26.233 8.76515 24.2449 6.51472C22.2569 4.26428 19.5606 3 16.7491 3C11.3428 3 6.89046 7.59 6.24117 13.5H9.89841L4.94258 19.095L0 13.5H3.56449C4.22703 5.925 9.87191 0 16.7359 0ZM20.6581 12.36C21.3207 12.375 21.864 12.975 21.864 13.74V20.655C21.864 21.405 21.3207 22.035 20.6449 22.035H13.3171C12.6413 22.035 12.0981 21.405 12.0981 20.655V13.74C12.0981 12.975 12.6413 12.375 13.3039 12.36V10.845C13.3039 8.55 14.9602 6.69 16.9744 6.69C19.0018 6.69 20.6581 8.55 20.6581 10.845V12.36ZM16.9744 8.79C15.9806 8.79 15.159 9.705 15.159 10.845V12.36H18.803V10.845C18.803 9.705 17.9814 8.79 16.9744 8.79Z" fill="#E4A951"/>
</svg>
