<svg width="50" height="50" viewBox="0 0 50 50" fill="none" xmlns="http://www.w3.org/2000/svg">
<path d="M20.8335 15.625C20.8335 15.3487 20.9432 15.0838 21.1386 14.8884C21.3339 14.6931 21.5989 14.5833 21.8752 14.5833H30.2085C30.4848 14.5833 30.7497 14.6931 30.9451 14.8884C31.1404 15.0838 31.2502 15.3487 31.2502 15.625C31.2502 15.9013 31.1404 16.1662 30.9451 16.3616C30.7497 16.5569 30.4848 16.6667 30.2085 16.6667H21.8752C21.5989 16.6667 21.3339 16.5569 21.1386 16.3616C20.9432 16.1662 20.8335 15.9013 20.8335 15.625ZM21.8752 18.75C21.5989 18.75 21.3339 18.8598 21.1386 19.0551C20.9432 19.2505 20.8335 19.5154 20.8335 19.7917C20.8335 20.0679 20.9432 20.3329 21.1386 20.5282C21.3339 20.7236 21.5989 20.8333 21.8752 20.8333H30.2085C30.4848 20.8333 30.7497 20.7236 30.9451 20.5282C31.1404 20.3329 31.2502 20.0679 31.2502 19.7917C31.2502 19.5154 31.1404 19.2505 30.9451 19.0551C30.7497 18.8598 30.4848 18.75 30.2085 18.75H21.8752ZM20.8335 29.1667C20.8335 28.8904 20.9432 28.6255 21.1386 28.4301C21.3339 28.2348 21.5989 28.125 21.8752 28.125H30.2085C30.4848 28.125 30.7497 28.2348 30.9451 28.4301C31.1404 28.6255 31.2502 28.8904 31.2502 29.1667C31.2502 29.4429 31.1404 29.7079 30.9451 29.9032C30.7497 30.0986 30.4848 30.2083 30.2085 30.2083H21.8752C21.5989 30.2083 21.3339 30.0986 21.1386 29.9032C20.9432 29.7079 20.8335 29.4429 20.8335 29.1667ZM21.8752 32.2917C21.5989 32.2917 21.3339 32.4014 21.1386 32.5968C20.9432 32.7921 20.8335 33.0571 20.8335 33.3333C20.8335 33.6096 20.9432 33.8746 21.1386 34.0699C21.3339 34.2653 21.5989 34.375 21.8752 34.375H30.2085C30.4848 34.375 30.7497 34.2653 30.9451 34.0699C31.1404 33.8746 31.2502 33.6096 31.2502 33.3333C31.2502 33.0571 31.1404 32.7921 30.9451 32.5968C30.7497 32.4014 30.4848 32.2917 30.2085 32.2917H21.8752Z" fill="white"/>
<path fill-rule="evenodd" clip-rule="evenodd" d="M10.4165 28.125C10.4165 27.8487 10.5263 27.5838 10.7216 27.3884C10.917 27.1931 11.1819 27.0833 11.4582 27.0833H16.6665C16.9428 27.0833 17.2077 27.1931 17.4031 27.3884C17.5984 27.5838 17.7082 27.8487 17.7082 28.125V33.3333C17.7082 33.6096 17.5984 33.8746 17.4031 34.0699C17.2077 34.2653 16.9428 34.375 16.6665 34.375H11.4582C11.1819 34.375 10.917 34.2653 10.7216 34.0699C10.5263 33.8746 10.4165 33.6096 10.4165 33.3333V28.125ZM12.4998 29.1667V32.2917H15.6248V29.1667H12.4998Z" fill="white"/>
<path d="M18.445 16.3615C18.6348 16.165 18.7398 15.9019 18.7374 15.6287C18.735 15.3556 18.6255 15.0944 18.4323 14.9012C18.2392 14.7081 17.9779 14.5985 17.7048 14.5962C17.4317 14.5938 17.1686 14.6988 16.9721 14.8885L13.5419 18.3187L12.195 16.9719C11.9986 16.7821 11.7354 16.6771 11.4623 16.6795C11.1892 16.6819 10.9279 16.7914 10.7348 16.9846C10.5417 17.1777 10.4321 17.439 10.4297 17.7121C10.4274 17.9852 10.5323 18.2483 10.7221 18.4448L13.5419 21.2646L18.445 16.3615Z" fill="white"/>
<path fill-rule="evenodd" clip-rule="evenodd" d="M10.4167 6.25C9.3116 6.25 8.25179 6.68899 7.47039 7.47039C6.68899 8.25179 6.25 9.3116 6.25 10.4167V39.5833C6.25 40.6884 6.68899 41.7482 7.47039 42.5296C8.25179 43.311 9.3116 43.75 10.4167 43.75H31.25C32.3551 43.75 33.4149 43.311 34.1963 42.5296C34.9777 41.7482 35.4167 40.6884 35.4167 39.5833V10.4167C35.4167 9.3116 34.9777 8.25179 34.1963 7.47039C33.4149 6.68899 32.3551 6.25 31.25 6.25H10.4167ZM8.33333 10.4167C8.33333 9.86413 8.55283 9.33423 8.94353 8.94353C9.33423 8.55283 9.86413 8.33333 10.4167 8.33333H31.25C31.8025 8.33333 32.3324 8.55283 32.7231 8.94353C33.1138 9.33423 33.3333 9.86413 33.3333 10.4167V39.5833C33.3333 40.1359 33.1138 40.6658 32.7231 41.0565C32.3324 41.4472 31.8025 41.6667 31.25 41.6667H10.4167C9.86413 41.6667 9.33423 41.4472 8.94353 41.0565C8.55283 40.6658 8.33333 40.1359 8.33333 39.5833V10.4167ZM37.5 16.6667C37.5 15.8379 37.8292 15.043 38.4153 14.457C39.0013 13.8709 39.7962 13.5417 40.625 13.5417C41.4538 13.5417 42.2487 13.8709 42.8347 14.457C43.4208 15.043 43.75 15.8379 43.75 16.6667V37.8156L40.625 42.5031L37.5 37.8156V16.6667ZM40.625 15.625C40.3487 15.625 40.0838 15.7347 39.8884 15.9301C39.6931 16.1254 39.5833 16.3904 39.5833 16.6667V18.75H41.6667V16.6667C41.6667 16.3904 41.5569 16.1254 41.3616 15.9301C41.1662 15.7347 40.9013 15.625 40.625 15.625ZM40.625 38.7469L39.5833 37.1844V20.8333H41.6667V37.1844L40.625 38.7469Z" fill="white"/>
</svg>
