<svg width="30" height="30" viewBox="0 0 30 30" fill="none" xmlns="http://www.w3.org/2000/svg">
<path d="M23.1801 18.6937C22.8871 18.1617 23.2598 17.6203 23.8973 16.95C24.9074 15.8859 26.0066 13.418 24.9848 10.9125C24.9918 10.8984 24.7832 10.4766 24.7902 10.4625L24.3707 10.4414C24.2371 10.4226 19.6223 10.4133 15.0027 10.4133C10.3832 10.4133 5.76834 10.4226 5.63475 10.4414C5.63475 10.4414 5.01366 10.8984 5.01834 10.9125C3.99881 13.418 5.09569 15.8859 6.10584 16.95C6.741 17.6203 7.11366 18.1617 6.82303 18.6937C6.53944 19.2117 5.69569 19.2867 5.69569 19.2867C5.69569 19.2867 5.89022 19.8164 6.35897 20.1023C6.79256 20.3672 7.32694 20.4281 7.69491 20.4375C7.69491 20.4375 9.13631 22.432 12.9051 22.432H17.1004C20.8691 22.432 22.3105 20.4375 22.3105 20.4375C22.6785 20.4281 23.2129 20.3672 23.6465 20.1023C24.1152 19.8164 24.3098 19.2867 24.3098 19.2867C24.3098 19.2867 23.4637 19.2094 23.1801 18.6937Z" fill="#543930"/>
<path d="M14.998 22.4297V20.2172L21.6941 19.6875L22.3035 20.4375C22.3035 20.4375 20.8621 22.432 17.0934 22.432L14.998 22.4297Z" fill="url(#paint0_radial_145_1183)"/>
<path d="M22.2892 19.4695C21.2861 17.9461 23.5103 17.3766 23.5103 17.3766L23.5126 17.3789C23.1259 17.8594 22.9501 18.2789 23.1775 18.6937C23.4611 19.2117 24.3048 19.2867 24.3048 19.2867C24.3048 19.2867 23.154 20.3086 22.2892 19.4695Z" fill="url(#paint1_radial_145_1183)"/>
<path d="M24.9896 10.9125C25.9857 13.3383 24.9381 15.8367 23.9561 16.8914C23.8225 17.0367 23.2506 17.5969 23.1193 18.0445C23.1193 18.0445 20.8834 14.925 20.2154 13.0922C20.0818 12.7219 19.9576 12.3422 19.9412 11.9484C19.9295 11.6531 19.974 11.3016 20.1451 11.0508C20.3537 10.7438 24.8701 10.6523 24.8701 10.6523C24.8701 10.6547 24.9896 10.9125 24.9896 10.9125Z" fill="url(#paint2_radial_145_1183)"/>
<path d="M5.01576 10.9125C4.01967 13.3383 5.06733 15.8367 6.04936 16.8914C6.1853 17.0367 6.75483 17.5969 6.88608 18.0445C6.88608 18.0445 9.12201 14.925 9.78998 13.0922C9.92592 12.7219 10.0478 12.3422 10.0642 11.9484C10.0759 11.6531 10.0314 11.3016 9.8603 11.0508C9.6517 10.7438 9.40795 10.8258 9.05405 10.8258C8.37905 10.8258 5.42358 10.6523 5.19389 10.6523C5.19623 10.6547 5.01576 10.9125 5.01576 10.9125Z" fill="url(#paint3_radial_145_1183)"/>
<path d="M15.0066 22.4297V20.2172L8.31055 19.6875L7.70117 20.4375C7.70117 20.4375 9.14258 22.432 12.9113 22.432L15.0066 22.4297Z" fill="url(#paint4_radial_145_1183)"/>
<path d="M7.71484 19.4695C8.71797 17.9461 6.49375 17.3766 6.49375 17.3766L6.49141 17.3789C6.87813 17.8594 7.05391 18.2789 6.82656 18.6937C6.54297 19.2117 5.69922 19.2867 5.69922 19.2867C5.69922 19.2867 6.85 20.3086 7.71484 19.4695Z" fill="url(#paint5_radial_145_1183)"/>
<path d="M17.2918 26.2594V20.918H12.7051V26.2594H17.2918ZM21.4051 11.7984H8.59414C7.21367 11.7984 6.08398 13.0008 6.08398 14.4727C6.08398 15.9445 7.21367 17.1469 8.59414 17.1469H21.4027C22.7832 17.1469 23.9129 15.9422 23.9129 14.4727C23.9152 13.0031 22.7855 11.7984 21.4051 11.7984Z" fill="#E59600"/>
<path d="M15.0008 2.57343C10.9227 2.57343 7.14453 6.93514 7.14453 13.2141C7.14453 19.4578 11.0375 22.5445 15.0008 22.5445C18.9641 22.5445 22.857 19.4578 22.857 13.2141C22.857 6.93514 19.0789 2.57343 15.0008 2.57343Z" fill="#FFCA28"/>
<path d="M12.8438 11.6531C12.6258 11.3649 12.1242 10.9477 11.1492 10.9477C10.1742 10.9477 9.67032 11.3672 9.45469 11.6531C9.3586 11.7797 9.38204 11.9274 9.45 12.0164C9.51094 12.0984 9.69375 12.1758 9.89532 12.1078C10.0969 12.0398 10.4906 11.8359 11.1492 11.8313C11.8078 11.8359 12.2016 12.0398 12.4031 12.1078C12.6047 12.1758 12.7875 12.1008 12.8484 12.0164C12.9141 11.9297 12.9398 11.782 12.8438 11.6531ZM20.5477 11.6531C20.3297 11.3649 19.8281 10.9477 18.8531 10.9477C17.8781 10.9477 17.3742 11.3672 17.1586 11.6531C17.0625 11.7797 17.0859 11.9274 17.1539 12.0164C17.2148 12.0984 17.3977 12.1758 17.5992 12.1078C17.8008 12.0398 18.1945 11.8359 18.8531 11.8313C19.5117 11.8359 19.9055 12.0398 20.107 12.1078C20.3086 12.1758 20.4914 12.1008 20.5523 12.0164C20.618 11.9297 20.6438 11.782 20.5477 11.6531Z" fill="#6D4C41"/>
<path d="M11.1477 14.9578C11.7858 14.9578 12.3031 14.4227 12.3031 13.7625C12.3031 13.1024 11.7858 12.5672 11.1477 12.5672C10.5095 12.5672 9.99219 13.1024 9.99219 13.7625C9.99219 14.4227 10.5095 14.9578 11.1477 14.9578Z" fill="#404040"/>
<path d="M18.8547 14.9578C19.4928 14.9578 20.0102 14.4227 20.0102 13.7625C20.0102 13.1024 19.4928 12.5672 18.8547 12.5672C18.2165 12.5672 17.6992 13.1024 17.6992 13.7625C17.6992 14.4227 18.2165 14.9578 18.8547 14.9578Z" fill="#404040"/>
<path d="M16.9743 17.8242C16.229 18.2672 13.7798 18.2672 13.0345 17.8242C12.6056 17.5687 12.1673 17.9602 12.3454 18.3492C12.5212 18.7312 13.8548 19.6195 15.0103 19.6195C16.1657 19.6195 17.4829 18.7312 17.6587 18.3492C17.8345 17.9602 17.4032 17.5687 16.9743 17.8242Z" fill="#795548"/>
<path d="M15.9048 15.9281C15.879 15.9187 15.8556 15.9117 15.8298 15.9094H14.1704C14.1446 15.9117 14.1188 15.9187 14.0954 15.9281C13.9454 15.9891 13.8634 16.1437 13.9337 16.3101C14.004 16.4766 14.3345 16.9406 15.0001 16.9406C15.6657 16.9406 15.9962 16.4742 16.0665 16.3101C16.1368 16.1461 16.0548 15.9891 15.9048 15.9281Z" fill="#E59600"/>
<path d="M23.2667 5.49608C23.0815 4.38983 20.0206 2.42108 18.8745 2.0578C15.7714 1.07577 13.7534 1.47421 12.6706 2.06483C12.4456 2.18671 10.9901 2.9953 9.97294 2.41639C9.33544 2.05311 7.50498 4.95702 6.58388 5.51249C5.5081 6.16171 5.60185 7.34296 5.76591 7.80233C5.17529 8.30389 4.43232 9.3703 4.94091 10.7555C5.32529 11.7984 6.85576 12.2789 6.85576 12.2789C6.71044 14.7961 7.39013 16.0172 7.39013 16.0172C7.39013 16.0172 8.48935 11.693 8.39795 11.032C8.39795 11.032 10.2167 10.6711 12.2815 9.48983C13.6761 8.69061 14.63 7.75546 16.1979 7.40155C18.5839 6.86483 19.1159 8.59218 19.1159 8.59218C19.1159 8.59218 21.3237 8.16796 21.9894 11.2336C22.2636 12.4945 22.4417 14.5851 22.5917 15.8672C22.5776 15.7547 23.3511 14.3836 23.4964 12.9773C23.5339 12.6141 24.5136 12.1336 24.9354 10.5726C25.4979 8.49139 24.8792 6.23671 23.2667 5.49608Z" fill="#543930"/>
<path d="M24.9379 10.5703C24.5863 11.8664 23.8527 12.4172 23.5902 12.7758C23.2293 10.5797 23.2855 8.49375 20.6113 6.02344C20.6113 6.02344 21.148 5.90859 21.4105 5.43047C21.6145 5.05781 21.5371 4.59375 21.5371 4.59375C21.6262 4.59844 21.7176 4.60781 21.8113 4.61953C22.2707 4.70391 22.7395 4.92891 23.1684 5.21719C23.2199 5.31563 23.2527 5.40938 23.2668 5.49609C24.8793 6.23438 25.5004 8.48906 24.9379 10.5703Z" fill="url(#paint6_radial_145_1183)"/>
<path d="M5.71091 7.84921C5.15544 8.3414 4.40779 9.44062 4.95857 10.8047C5.37341 11.8336 6.85466 12.2789 6.85466 12.2789C6.85466 12.2836 7.14997 12.3727 7.30232 12.3727L7.64919 7.23984C6.93904 7.23984 6.257 7.45312 5.81638 7.76015C5.82341 7.76718 5.70857 7.84218 5.71091 7.84921Z" fill="url(#paint7_radial_145_1183)"/>
<path d="M7.66101 7.24218V7.23046C6.95085 7.23046 6.27117 7.44374 5.8282 7.74843C5.8282 7.75546 5.79304 7.78124 5.76492 7.80234V7.79999C5.76726 7.79765 5.77195 7.79531 5.77429 7.79296C5.61023 7.33359 5.51414 6.15234 6.59226 5.50312C6.69539 5.43984 6.81023 5.34843 6.93445 5.23359C7.22039 5.1164 7.52507 5.04843 7.80632 5.02031C7.88836 5.01328 8.03836 5.00156 8.08289 5.00156L9.21023 5.13984L7.66101 7.24218Z" fill="url(#paint8_radial_145_1183)"/>
<path d="M27.3438 12.4922C27.0531 12.4922 26.8164 12.7172 26.8164 12.9937V15.15C26.8164 15.4266 27.0531 15.6516 27.3438 15.6516C27.6344 15.6516 27.8711 15.4266 27.8711 15.15V12.9937C27.8711 12.7172 27.6344 12.4922 27.3438 12.4922ZM26.2891 12.4922C25.9984 12.4922 25.7617 12.7172 25.7617 12.9937V15.15C25.7617 15.4266 25.9984 15.6516 26.2891 15.6516C26.5797 15.6516 26.8164 15.4266 26.8164 15.15V12.9937C26.8164 12.7172 26.5797 12.4922 26.2891 12.4922Z" fill="#E8AD00"/>
<path d="M26.8164 12.4922C26.5258 12.4922 26.2891 12.7172 26.2891 12.9937V15.6164C26.2891 15.893 26.5258 16.118 26.8164 16.118C27.107 16.118 27.3438 15.893 27.3438 15.6164V12.9937C27.3438 12.7172 27.107 12.4922 26.8164 12.4922Z" fill="#FFCA28"/>
<path d="M26.8168 12.8203C27.1741 12.8203 27.4637 12.5443 27.4637 12.2039C27.4637 11.8635 27.1741 11.5875 26.8168 11.5875C26.4595 11.5875 26.1699 11.8635 26.1699 12.2039C26.1699 12.5443 26.4595 12.8203 26.8168 12.8203Z" fill="#FFCA28"/>
<path d="M26.8164 12.1969C26.6875 12.1969 26.582 12.0914 26.582 11.9625V3.05624C26.582 2.92734 26.6875 2.82187 26.8164 2.82187C26.9453 2.82187 27.0508 2.92734 27.0508 3.05624V11.9625C27.0508 12.0914 26.9453 12.1969 26.8164 12.1969Z" fill="#504F4F"/>
<path d="M27.0508 2.8125C19.825 0.996094 14.8633 0.9375 14.8633 0.9375C14.8633 0.9375 9.90156 0.996094 2.67578 2.8125V2.99297C2.67578 3.30469 2.87969 3.57891 3.17734 3.66563C4.04922 3.92344 5.86563 4.44844 7.05156 4.6875C7.05156 4.6875 6.79141 5.08828 6.58281 5.5125C6.58281 5.5125 8.91484 6.9 14.8633 7.5C20.8117 6.9 23.2656 5.49609 23.2656 5.49609C23.0594 5.07188 22.8016 4.6875 22.8016 4.6875C23.8563 4.51406 25.6891 3.95156 26.5609 3.675C26.8539 3.58125 27.0508 3.31172 27.0508 3.00469V2.8125Z" fill="url(#paint9_linear_145_1183)"/>
<path d="M14.8633 0.9375C14.8633 0.9375 9.90156 0.996094 2.67578 2.8125C2.67578 2.8125 10.975 5.07891 14.8633 5.01094C18.7516 5.07891 27.0508 2.8125 27.0508 2.8125C19.8227 0.996094 14.8633 0.9375 14.8633 0.9375Z" fill="url(#paint10_linear_145_1183)"/>
<path opacity="0.4" d="M27.0508 2.8125C19.825 0.996094 14.8633 0.9375 14.8633 0.9375C14.8633 0.9375 9.90156 0.996094 2.67578 2.8125V2.99297C2.67578 3.30469 2.87969 3.57891 3.17734 3.66563C4.04922 3.92344 5.86563 4.44844 7.05156 4.6875C7.05156 4.6875 6.79141 5.08828 6.58281 5.5125C6.58281 5.5125 8.91484 6.9 14.8633 7.5C20.8117 6.9 23.2656 5.49609 23.2656 5.49609C23.0594 5.07188 22.8016 4.6875 22.8016 4.6875C23.8563 4.51406 25.6891 3.95156 26.5609 3.675C26.8539 3.58125 27.0508 3.31172 27.0508 3.00469V2.8125Z" fill="url(#paint11_linear_145_1183)"/>
<path d="M26.8363 28.357C26.8363 24.9328 21.7387 23.3086 17.2926 22.943L15.277 25.5281C15.2113 25.6125 15.1082 25.6641 15.0004 25.6641C14.8926 25.6641 14.7895 25.6149 14.7238 25.5281L12.7035 22.9383C10.2309 23.1281 3.16211 24.0516 3.16211 28.357V29.0625H26.834L26.8363 28.357Z" fill="#212121"/>
<path d="M26.8363 28.357C26.8363 24.9328 21.7387 23.3086 17.2926 22.943L15.277 25.5281C15.2113 25.6125 15.1082 25.6641 15.0004 25.6641C14.8926 25.6641 14.7895 25.6149 14.7238 25.5281L12.7035 22.9383C10.2309 23.1281 3.16211 24.0516 3.16211 28.357V29.0625H26.834L26.8363 28.357Z" fill="url(#paint12_radial_145_1183)"/>
<defs>
<radialGradient id="paint0_radial_145_1183" cx="0" cy="0" r="1" gradientUnits="userSpaceOnUse" gradientTransform="translate(18.4183 19.2324) scale(5.48883 2.69611)">
<stop offset="0.728" stop-color="#6D4C41" stop-opacity="0"/>
<stop offset="1" stop-color="#6D4C41"/>
</radialGradient>
<radialGradient id="paint1_radial_145_1183" cx="0" cy="0" r="1" gradientUnits="userSpaceOnUse" gradientTransform="translate(23.8246 18.4159) rotate(154.924) scale(1.62203 1.20331)">
<stop offset="0.663" stop-color="#6D4C41"/>
<stop offset="1" stop-color="#6D4C41" stop-opacity="0"/>
</radialGradient>
<radialGradient id="paint2_radial_145_1183" cx="0" cy="0" r="1" gradientUnits="userSpaceOnUse" gradientTransform="translate(19.6213 13.8281) rotate(-94.2783) scale(7.12467 5.93795)">
<stop offset="0.725" stop-color="#6D4C41" stop-opacity="0"/>
<stop offset="1" stop-color="#6D4C41"/>
</radialGradient>
<radialGradient id="paint3_radial_145_1183" cx="0" cy="0" r="1" gradientUnits="userSpaceOnUse" gradientTransform="translate(10.3848 13.8279) rotate(-85.7217) scale(7.12467 5.93795)">
<stop offset="0.725" stop-color="#6D4C41" stop-opacity="0"/>
<stop offset="1" stop-color="#6D4C41"/>
</radialGradient>
<radialGradient id="paint4_radial_145_1183" cx="0" cy="0" r="1" gradientUnits="userSpaceOnUse" gradientTransform="translate(11.5869 19.2324) rotate(180) scale(5.48883 2.69611)">
<stop offset="0.728" stop-color="#6D4C41" stop-opacity="0"/>
<stop offset="1" stop-color="#6D4C41"/>
</radialGradient>
<radialGradient id="paint5_radial_145_1183" cx="0" cy="0" r="1" gradientUnits="userSpaceOnUse" gradientTransform="translate(6.18051 18.416) rotate(25.0761) scale(1.62203 1.20331)">
<stop offset="0.663" stop-color="#6D4C41"/>
<stop offset="1" stop-color="#6D4C41" stop-opacity="0"/>
</radialGradient>
<radialGradient id="paint6_radial_145_1183" cx="0" cy="0" r="1" gradientUnits="userSpaceOnUse" gradientTransform="translate(19.4232 10.1863) rotate(72.0851) scale(7.93957 5.89097)">
<stop offset="0.699" stop-color="#6D4C41" stop-opacity="0"/>
<stop offset="1" stop-color="#6D4C41"/>
</radialGradient>
<radialGradient id="paint7_radial_145_1183" cx="0" cy="0" r="1" gradientUnits="userSpaceOnUse" gradientTransform="translate(9.031 10.1482) rotate(7.83355) scale(3.95778 5.56134)">
<stop offset="0.598" stop-color="#6D4C41" stop-opacity="0"/>
<stop offset="1" stop-color="#6D4C41"/>
</radialGradient>
<radialGradient id="paint8_radial_145_1183" cx="0" cy="0" r="1" gradientUnits="userSpaceOnUse" gradientTransform="translate(8.69105 7.55241) rotate(-164.942) scale(3.03316 2.83848)">
<stop offset="0.66" stop-color="#6D4C41" stop-opacity="0"/>
<stop offset="1" stop-color="#6D4C41"/>
</radialGradient>
<linearGradient id="paint9_linear_145_1183" x1="14.8626" y1="-0.0780469" x2="14.8626" y2="6.63445" gradientUnits="userSpaceOnUse">
<stop offset="0.003" stop-color="#424242"/>
<stop offset="0.472" stop-color="#353535"/>
<stop offset="1" stop-color="#212121"/>
</linearGradient>
<linearGradient id="paint10_linear_145_1183" x1="14.8626" y1="-0.0391406" x2="14.8626" y2="7.22648" gradientUnits="userSpaceOnUse">
<stop offset="0.003" stop-color="#616161"/>
<stop offset="0.324" stop-color="#505050"/>
<stop offset="0.955" stop-color="#242424"/>
<stop offset="1" stop-color="#212121"/>
</linearGradient>
<linearGradient id="paint11_linear_145_1183" x1="3.11852" y1="4.21852" x2="26.7501" y2="4.21852" gradientUnits="userSpaceOnUse">
<stop offset="0.001" stop-color="#BFBEBE"/>
<stop offset="0.3" stop-color="#212121" stop-opacity="0"/>
<stop offset="0.7" stop-color="#212121" stop-opacity="0"/>
<stop offset="1" stop-color="#BFBEBE"/>
</linearGradient>
<radialGradient id="paint12_radial_145_1183" cx="0" cy="0" r="1" gradientUnits="userSpaceOnUse" gradientTransform="translate(15.0004 28.7351) scale(12.6954 6.66127)">
<stop offset="0.598" stop-color="#212121"/>
<stop offset="1" stop-color="#616161"/>
</radialGradient>
</defs>
</svg>
